<?xml version="1.0" encoding="utf-8"?>
<!-- Generator: Adobe Illustrator 16.0.0, SVG Export Plug-In . SVG Version: 6.00 Build 0)  -->
<!DOCTYPE svg PUBLIC "-//W3C//DTD SVG 1.1//EN" "http://www.w3.org/Graphics/SVG/1.1/DTD/svg11.dtd">
<svg version="1.1" id="Layer_1" xmlns="http://www.w3.org/2000/svg" xmlns:xlink="http://www.w3.org/1999/xlink" x="0px" y="0px"
	 width="257.979px" height="350.587px" viewBox="0 0 257.979 350.587" enable-background="new 0 0 257.979 350.587"
	 xml:space="preserve">
<g>
	<path fill-rule="evenodd" clip-rule="evenodd" fill="#E82227" d="M96.015,69.144c1.761,1.395,3.816,1.195,5.855,1.076
		c1.938,0.888,3.652,0.666,5.069-1.025c0,0-0.046,0.025-0.046,0.026c2.346-0.019,3.786,0.719,4.352,3.392
		c0.353,1.668,0.844,3.833,2.988,4.607c3.221,2.431,5.257,6.477,9.758,7.162c4.474,1.927,8.575,1.615,12.123-2.018
		c1.519-0.361,2.241-1.543,2.889-2.802c4.323-6.11,3.954-12.213-0.028-18.311c-0.131-0.57-0.294-1.104-1.066-0.967l0.039,0.043
		c0.25-2.214-2.888-3.867-1.053-6.345c1.398-1.542,2.796-3.084,4.194-4.626c1.949-4.632,5.951-6.583,10.418-7.826
		c0.757-0.21,2.048-2.092,2.532,0.258c0.456,2.212,1.971,1.462,3.064,1.063c2.896-1.058,5.676-0.584,8.182,0.767
		c4.391,2.366,8.758,4.841,12.832,7.703c2.044,1.436,7.279,1.35,4.229,6.396c-0.09,0.15,0.502,0.821,0.875,1.127
		c2.526,2.073,2.488,5.326,3.755,7.971c1.606,3.354,0.198,3.981-3.248,2.974c4.217,6.585,1.882,12.709,0.948,18.875
		c-0.607,4.017-3.076,7.003-4.783,10.419c-1.518,3.093-2.838,6.305-4.6,9.253c-2.974,4.979-7.82,8.392-11.326,12.949
		c-0.274,0.174-1.195,0.101-0.277,0.728c0.081-0.252,0.163-0.504,0.244-0.756c2.295,0.475,3.958-0.996,5.217-2.345
		c4.871-5.218,9.829-10.45,11.616-17.716c3.588-4.894,7.227-9.752,10.748-14.692c3.003-4.213,6.439-8.644,7.095-13.595
		c0.666-5.033,2.744-9.32,4.326-13.882c0.321-0.928,1.206-1.568,0.251-2.508c-6.3-6.2-6.51-17.116-16.742-20.545
		c-3.928-1.316-4.484-6.235-3.122-10.065c1.22-3.43,4.508-4.67,8.124-4.669c6.525,0.002,11.203,3.62,15.516,7.938
		c0.463,0.463,0.721,1.164,1.232,1.537c0.715,0.521,0.549-0.457,0.848-0.651c4.531-2.94,7.074-7.132,8.346-12.343
		c0.822-3.372,1.92-6.739,3.396-9.872c1.73-3.673,4.539-6.362,9.074-5.226c1.258,0.315,3.885,1.191,1.779,3.367
		c-4.367,4.515-4.496,10.765-6.859,16.134c2.947-1.846,3.307-5.211,4.621-8.014c4.504-9.601,4.098-8.8,13.604-5.891
		c2.65,0.812,4.133,2.669,4.014,5.603c-0.117,2.915-1.322,5.352-4.123,6.132c-1.963,0.547-3.299,1.362-4.195,3.08
		c-1.826,1.581-2.92,3.582-4.242,6.626c2.836-1.844,4.063-3.669,5.145-5.62c1.117-1.407,3.129,0.293,4.502-1.76
		c1.875-2.806,5.135-3.842,8.33-1.791c3.357,2.156,4.07,5.406,2.979,9.181c-1.201,4.146-4.311,6.569-7.648,8.84
		c-1.635,1.113-3.936,1.962-4.689,3.529c-2.777,5.77-6.672,11.821-11.615,14.29c-8.268,4.13-9.268,10.887-10.314,17.971
		c-1.014,6.859-5.973,12.19-6.535,19.139c-0.125,1.531-1.1,3.251-2.191,4.402c-4.088,4.309-6.436,9.818-11.27,13.827
		c-4.317,3.579-6.493,9.344-11.301,13.313c-4.016,3.317-7.561,8.271-9.822,13.576c-0.785,1.838-1.105,3.248,0.006,5.056
		c5.67,9.224,7.963,19.903,12.605,29.587c1.195,2.494,1.499,5.424,2.143,8.168c0.354,1.506,0.615,3.078-1.814,2.9
		c-0.032-0.152-0.065-0.305-0.099-0.457c-0.118,0.105-0.237,0.211-0.356,0.315c0.148,0.052,0.295,0.104,0.441,0.155
		c-0.498,6.592,4.532,13.938-2.676,19.631c-0.196,0.155-0.164,0.631-0.194,0.961c-0.931,10.002-6.897,16.305-15.453,20.442
		c-2.864,1.386-4.088,3.188-4.834,6.243c-0.894,3.653-2.187,7.559-4.455,10.455c-4.925,6.289-3.519,13.898-5.174,20.818
		c-0.74,3.095,3.195,6.186,3.286,9.039c0.182,5.691,3.733,8.461,7.221,11.573c1.409,1.258,2.876,2.494,4.189-0.742
		c0.614-1.515,4.169-3.94,5.254-1.454c0.842,1.934,2.078,2.155,3.178,2.968c5.221,3.853,9.17,8.549,8.559,15.388
		c-0.852,9.529-1.614,19.297-6.119,27.88c-7.55,14.387-17.125,22.539-33.367,18.911c-8.601-1.921-10.507-5.014-7.169-13.196
		c0.183-0.449,0.271-0.911-0.724-1.159c-1.913,2.291-3.765,4.578-2.767,8.123c1.004,3.569-1.094,3.581-3.544,2.699
		c-3.69-1.329-5.24-4.385-6.108-7.932c-0.41-1.678,0.62-3.508-0.578-5.373c-2.639,2.942-0.478,6.301-0.813,9.594
		c-5.626-4.523-6.2-12.647-1.699-17.566c2.543-2.778,5.771-4.698,9.153-5.918c6.229-2.244,7.642-8.451,11.385-12.709
		c0.23-0.263,0.26-1.061,0.042-1.303c-4.278-4.745-6.667-10.477-9.43-16.16c-3.187-6.559-6.538-12.854-7.184-20.233
		c0.059-0.103,0.117-0.206,0.176-0.31c-0.04,0.121-0.079,0.242-0.119,0.363c-1.76,0.91-2.196,0.096-2.268-1.58
		c-0.208-4.871,0.021-9.629,2.46-14.047c0.528-0.957,2.083-2.549,0.292-3.145c-3.074-1.022-0.971-2.19-0.347-3.145
		c2.704-4.129,5.543-8.174,6.223-13.273c-11.72-2.026-21.373-5.099-25.3-17.586c-0.299-0.95-0.391-2.311-1.059-2.747
		c-6.215-4.058-4.43-10.073-4.308-15.851c0.1-4.717,2.436-8.984,2.236-13.695c0.082-0.084,0.165-0.168,0.247-0.252
		c-0.065,0.103-0.129,0.206-0.194,0.309c-2.95-1.099-0.851-2.848-0.144-3.729c4.723-5.889,6.745-13.97,14.22-17.65
		c0.703-0.346,1.324-1.051,1.739-1.737c0.493-0.813,0.721-1.786,1.063-2.69c-5.274-1.86-0.272-3.781,0.127-5.505
		c0.439-1.896,0.811-1.81,0.037-6.179c-0.899,7.961-5.357,7.062-9.932,6.138c-10.876-2.196-20.857-6.324-29.434-13.804
		c-1.101,1.338,0.925,2.477-0.279,3.424c-5.907-2.227-9.408-7.141-13.017-11.851c-2.543-3.319-5.008-7.266-8.54-8.909
		c-5.87-2.732-9.148-7.92-13.751-11.791c-1.249-1.051-2.604-2.18-2.166-4.169c0.157-0.058,0.314-0.114,0.472-0.171
		c-0.144,0.026-0.288,0.053-0.432,0.079c-5.9-0.571-11.042-2.611-15.329-6.951c-1.379-1.396-3.293-3.012-5.801-2.339
		c0,0-0.039-0.039-0.038-0.039c1.023-0.887,0.135-1.523-0.421-1.911c-4.638-3.238-9.729-5.517-15.369-6.134
		c-4.655-0.51-8.769-1.656-11.16-6.127c0.103-0.336,0.049-0.645-0.16-0.926c0-1.037,0-2.072,0-3.109
		c0.209-0.282,0.262-0.592,0.16-0.928c2.862-6.279,8.57-4.631,13.598-4.88c0.5,0.22,1.001,0.438,1.502,0.659
		c4.771,1.371,2.66,6.506,5.026,9.192c0.317,2.23,1.701,3.63,3.662,4.788c0.645-2.141-0.746-3.387-1.682-4.791
		c-0.077-0.695-0.383-1.189-1.132-1.297c-0.07-0.229-0.224-0.346-0.461-0.355c1.461-1.938-0.462-3.563-0.494-5.363
		c0.125-0.943,0.102-1.842-0.727-2.508c0.009-0.824,0.017-1.648,0.025-2.472c0.025-0.656,0.05-1.313,0.075-1.969l0.104-0.284
		l-0.221-0.206c0.184-0.486,0.368-0.973,0.552-1.458c0.755-4.015,2.66-7.242,6.339-9.254c0.333,0.068,0.628-0.009,0.886-0.231
		c0.721,0.015,1.441,0.029,2.163,0.043c0.265,0.225,0.568,0.308,0.91,0.247c2.482,1.755,3.681,4.277,4.279,7.158
		c-0.089,0.321-0.024,0.606,0.195,0.856c0.059,1.028,0.118,2.056,0.177,3.084c-0.124,0.767-0.248,1.533-0.372,2.3
		c1.215-0.207,1.332-1.454,2.034-2.146c3.227,0.606,6.139,4.639,8.698,3.367c2.309-1.148,3.079-5.379,4.547-8.241
		c0.296-0.578,0.683-1.11,1.027-1.663c0.341-0.342,0.682-0.685,1.026-1.028c1.816-0.924,3.63-1.846,5.444-2.768
		C60.5,53.854,61,53.63,61.502,53.406c0.975,0.001,1.949,0.002,2.923,0.003c0.491,0.202,0.982,0.405,1.474,0.607
		c2.377,0.677,4.232,1.997,5.292,4.297c-0.104,0.327-0.045,0.62,0.18,0.88c-1.546,3.195-1.348,7.204-4.627,9.598
		c-5.837,4.263,0.146,10.551-2.546,15.404c-0.351,0.633-0.35,1.732-0.034,2.383c0.307,0.633,1.364,0.853,1.858,1.447
		c2.878,3.468,7.526,5.818,7.251,11.308c0.226,0.292,0.451,0.585,0.677,0.877c2.418,0.249,4.139,1.005,3.64,4.03
		c-0.15,0.911-0.167,2.379,1.541,2.404c1.294-0.646,0.478-1.271-0.019-1.898c0.052-2.129,0.105-4.259,0.158-6.389
		c-0.574-1.135-0.574-1.135-2.435-0.144c-1.914-1.698-0.111-3.022,0.556-4.328c1.67-3.272,4.34-5.747,7.121-7.977
		c-0.836-1.241-2.985,0.204-3.092-2.14c5.304-1.427,7.875-5.557,10.015-10.191C92.353,71.587,92.925,68.994,96.015,69.144z
		 M119.772,132.342c4.729,1.849,9.51,1.072,14.293,0.488c-4.043-0.761-8.182-0.294-12.176-1.354
		c-7.646-1.957-14.327-5.766-20.632-11.516c-0.202,5.934-3.048,5.205-6.14,3.437c-2.647-1.514-4.303-4.026-6.13-6.401
		c-1.992-2.591-2.167-7.492-7.472-6.333c-0.287,0.063-0.876-1.265-1.325-1.945c-0.371-0.197-0.945-0.653-1.077-0.549
		c-0.77,0.609-0.335,1.374-0.082,2.092c5.455,4.981,9.685,11.278,16.153,15.158c1.258,0.755,3.048,1.873,4.112,1.49
		c5.567-2.002,9.332,1.938,13.793,3.622C115.239,131.342,117.54,131.751,119.772,132.342z M164.474,65.597
		c-1.743,0.133-3.977-1.333-4.347,1.733c-0.648,5.371-5.347,8.22-8.43,11.619c-3.888,4.285-8.68,8.854-15.649,8.559
		c-0.917-0.039-2.042,1.08-2.812,1.904c-4.164,4.453-10.658,4.566-15.246,8.248c-0.657,0.527-1.941,0.477-2.905,0.383
		c-5.103-0.499-9.81,2.356-15.236,1.073c-3.175-0.751-5.756-0.794-6.426-4.519c-1.845,0.921-2.979,2.756-2.057,3.706
		c1.796,1.851,4.335,2.907,7.178,2.516c4.136-0.571,7.839,0.414,10.825,3.421c6.325,6.368,14.268,9.7,22.73,11.835
		c13.295,3.354,25.108-3.741,28.8-16.952c2.413-8.637,1.939-17.475,1.974-26.284C162.881,70.39,162.46,67.799,164.474,65.597z"/>
	<path fill-rule="evenodd" clip-rule="evenodd" fill="#402E2D" d="M29.805,92.474c2.508-0.673,4.421,0.942,5.801,2.339
		c4.286,4.34,9.429,6.38,15.329,6.95l-0.04,0.093c-0.438,1.989,0.917,3.118,2.166,4.169c4.603,3.871,7.881,9.059,13.751,11.791
		c3.532,1.644,5.997,5.59,8.54,8.909c3.609,4.71,7.11,9.624,13.017,11.851c1.205-0.947-0.821-2.086,0.279-3.424
		c8.577,7.479,18.558,11.607,29.434,13.804c4.574,0.924,9.033,1.823,9.932-6.138c0.774,4.369,0.403,4.283-0.037,6.179
		c-0.4,1.724-5.402,3.645-0.127,5.505c-0.343,0.904-0.571,1.877-1.063,2.69c-0.416,0.687-1.037,1.392-1.739,1.737
		c-7.476,3.681-9.497,11.762-14.22,17.65c-0.707,0.881-2.806,2.63,0.144,3.729l-0.053-0.057c0.2,4.711-2.136,8.979-2.236,13.695
		c-0.122,5.777-1.907,11.793,4.308,15.851c0.668,0.437,0.76,1.797,1.059,2.747c3.927,12.487,13.58,15.56,25.3,17.586
		c-0.68,5.1-3.519,9.145-6.223,13.273c-0.625,0.954-2.728,2.122,0.347,3.145c1.791,0.596,0.236,2.188-0.292,3.145
		c-2.438,4.418-2.668,9.176-2.46,14.047c0.072,1.676,0.508,2.49,2.268,1.58l-0.057-0.054c0.646,7.38,3.997,13.675,7.184,20.233
		c2.762,5.684,5.152,11.415,9.43,16.16c0.218,0.242,0.188,1.04-0.042,1.303c-3.743,4.258-5.156,10.465-11.385,12.709
		c-3.382,1.22-6.61,3.14-9.153,5.918c-4.501,4.919-3.927,13.043,1.699,17.566c0.335-3.293-1.826-6.651,0.813-9.594
		c1.198,1.865,0.167,3.695,0.578,5.373c0.869,3.547,2.418,6.603,6.108,7.932c2.45,0.882,4.548,0.87,3.544-2.699
		c-0.998-3.545,0.854-5.832,2.767-8.123c0.995,0.248,0.907,0.71,0.724,1.159c-3.338,8.183-1.432,11.275,7.169,13.196
		c16.241,3.628,25.817-4.524,33.367-18.911c4.505-8.583,5.268-18.351,6.119-27.88c0.611-6.839-3.338-11.535-8.559-15.388
		c-1.1-0.813-2.336-1.034-3.178-2.968c-1.085-2.486-4.64-0.061-5.254,1.454c-1.313,3.236-2.78,2-4.189,0.742
		c-3.487-3.112-7.039-5.882-7.221-11.573c-0.091-2.854-4.026-5.944-3.286-9.039c1.655-6.92,0.249-14.529,5.174-20.818
		c2.269-2.896,3.562-6.802,4.455-10.455c0.747-3.055,1.97-4.857,4.834-6.243c8.556-4.138,14.522-10.44,15.453-20.442
		c0.03-0.33-0.002-0.806,0.194-0.961c7.208-5.692,2.178-13.039,2.676-19.631l0.015-0.014c2.429,0.178,2.167-1.395,1.813-2.9
		c-0.644-2.744-0.947-5.674-2.143-8.168c-4.643-9.684-6.936-20.363-12.605-29.587c-1.111-1.808-0.791-3.218-0.006-5.056
		c2.262-5.305,5.807-10.259,9.822-13.576c4.808-3.97,6.983-9.734,11.301-13.313c4.834-4.009,7.182-9.519,11.27-13.827
		c1.092-1.151,2.066-2.871,2.191-4.402c0.563-6.948,5.521-12.279,6.535-19.139c1.047-7.084,2.047-13.841,10.314-17.971
		c4.943-2.469,8.838-8.52,11.615-14.29c0.754-1.567,3.055-2.416,4.689-3.529c3.338-2.271,6.447-4.694,7.648-8.84
		c1.092-3.775,0.379-7.025-2.979-9.181c-3.195-2.051-6.455-1.015-8.33,1.791c-1.373,2.053-3.385,0.353-4.502,1.76
		c-0.301-0.335-0.602-0.671-0.902-1.007c0.896-1.717,2.232-2.532,4.195-3.079c2.801-0.78,4.006-3.217,4.123-6.132
		c0.119-2.934-1.363-4.792-4.014-5.603c-9.506-2.91-9.1-3.71-13.604,5.891c-1.314,2.802-1.674,6.168-4.621,8.014
		c2.363-5.369,2.492-11.619,6.859-16.134c2.105-2.176-0.521-3.052-1.779-3.367c-4.535-1.137-7.344,1.553-9.074,5.226
		c-1.477,3.133-2.574,6.5-3.396,9.872c-1.271,5.211-3.814,9.403-8.346,12.343c-0.299,0.194-0.133,1.172-0.848,0.651
		c-0.512-0.373-0.77-1.073-1.232-1.537c-4.313-4.318-8.99-7.936-15.516-7.938c-3.616-0.001-6.904,1.239-8.124,4.669
		c-1.362,3.83-0.806,8.749,3.122,10.065c10.232,3.429,10.442,14.345,16.742,20.545c0.955,0.94,0.07,1.58-0.251,2.508
		c-1.582,4.562-3.66,8.849-4.326,13.882c-0.655,4.951-4.092,9.382-7.095,13.595c-3.521,4.94-7.16,9.799-10.748,14.692
		c-0.291-0.704-0.583-1.408-0.875-2.113c1.707-3.416,4.176-6.402,4.783-10.419c0.934-6.166,3.269-12.29-0.948-18.875
		c3.446,1.007,4.854,0.38,3.248-2.974c-1.267-2.645-1.229-5.897-3.755-7.971c-0.373-0.306-0.965-0.977-0.875-1.127
		c3.05-5.046-2.186-4.959-4.229-6.396c-4.074-2.862-8.441-5.337-12.832-7.703c-2.506-1.351-5.286-1.825-8.182-0.767
		c-1.093,0.399-2.608,1.149-3.064-1.063c-0.484-2.35-1.775-0.469-2.532-0.258c-4.467,1.242-8.469,3.194-10.418,7.826
		c1.203-6.325,2.426-12.586-3.021-17.872c-2.34-2.27-5.037-3.565-8.08-4.378c0-0.541,0-1.082-0.001-1.623
		c7.619,1.444,12.658,5.706,13.875,13.53c0.386,2.483,1.176,2.797,3.089,1.907c1.652-0.769,3.255-1.65,4.844-2.543
		c1.951-1.097,3.942-2.506,5.084,0.848c0.348,1.022,1.023,1.245,1.88,1.091c5.089-0.911,9.208,2.531,13.969,3.083
		c0.78,0.09,1.987,0.012,2.046,1.007c0.217,3.725,3.773,3.705,5.793,5.382c2.58,2.142,8.795,1.94,5.088,8.048
		c3.067,3.686,3.276,8.648,5.646,12.641c0.735,1.24,1.404,2.347-0.525,3.172c-0.961,0.41-2.908-1.051-2.799,1.501
		c0.122,2.825-0.063,5.675,0.234,8.476c0.096,0.9,1.498,0.75,1.855-0.082c1.433-3.334,5.787-5.438,4.043-10.215
		c-0.36-0.984,0.852-2.84,1.762-3.945c7.157-8.688,3.238-16.419-2.002-23.995c-1.867-2.698-4.068-4.896-7.275-6.408
		c-5.295-2.496-7.32-8.664-5.377-14.038c1.623-4.486,7.227-7.027,12.844-6.138c4.438,0.703,8.314,2.425,11.381,5.647
		c3.312,3.48,5.496,1.749,7.453-1.331c2.82-4.439,3.395-9.677,5.045-14.535c1.43-4.211,3.301-8.181,8.566-8.529
		c2.609-0.172,4.904-0.088,7.273,2.084c1.99,1.827,5.354,2.41,8.219,2.976c5.006,0.988,6.896,4.132,6.949,8.813
		c0.02,1.564-0.094,2.615,2.041,3.183c5.527,1.471,7.201,4.035,6.969,9.752c-0.174,4.315-1.617,8.12-5.096,10.915
		c-5.318,4.271-9.76,9.377-13.979,14.688c-2.717,3.42-5.666,6.553-9.732,8.378c-2.139,0.959-3.02,2.437-3.541,4.859
		c-3.721,17.283-8.787,34.009-21.007,47.588c-6.892,7.658-13.634,15.451-20.381,23.238c-2.324,2.682-3.941,4.908-0.7,8.809
		c3.947,4.75,4.263,11.871,9.143,16.342c-1.59,8.021,5.615,14.064,4.969,21.789c-0.367,4.399-2.623,8.528-1.779,13.182
		c0.564,3.111,2.607,7.078-3.043,8.039c-0.281,0.047-0.369,1.424-0.488,2.19c-1.541,10.026-6.728,17.153-16.48,20.573
		c-2.598,0.912-3.588,2.328-4.121,5.293c-1.01,5.617-2.871,11.151-6.456,15.855c-0.281,0.368-0.403,0.922-0.441,1.402
		c-0.547,6.783-3.785,13.474,1.026,20.332c1.741,2.482,1.834,6.32,3.944,9.123c1.155,1.535,2.059,1.816,3.656,0.903
		c4.152-2.372,6.734-2.153,11.316,1.478c8.016,6.353,11.152,13.784,9.959,22.908c-1.351,10.326-3.816,20.591-10.088,29.391
		c-4.51,6.328-9.686,11.914-17.162,14.699c-7.157,2.666-14.129,2.143-21.348-0.639c-5.156-1.986-10.454-3.615-15.503-5.94
		c-1.684-0.775-3.351-1.405-4.504-2.936c-4.266-5.657-2.258-18.286,3.658-22.173c2.206-1.449,4.549-2.906,7.042-3.658
		c5.282-1.595,7.004-6.256,9.657-10.183c0.952-1.409-0.118-2.136-0.813-2.997c-2.089-2.584-3.603-5.729-5.736-8.072
		c-4.353-4.779-4.724-10.932-6.905-16.404c-1.916-4.808-5.781-9.103-4.989-14.791c1.163-8.349-0.221-17.334,6.747-24.207
		c3.119-3.076,2.166-5.162-2.441-5.727c-7.424-0.91-12.844-5.299-17.818-10.624c-5.421-5.804-12.269-8.991-20.338-9.108
		c-5.763-0.082-10.194,3.848-10.383,9.652c-0.247,7.568-0.607,15.183,1.233,22.648c0.315,1.279,0.654,2.615,1.311,3.732
		c1.079,1.838,2.576,3.484-0.958,4.284c-1.694,0.384-1.054,1.745-0.842,2.841c3.15,16.294-8.64,24.618-26.055,21.17
		c-5.08-1.006-9.097-3.992-12.819-7.344c-7.263-6.539-15.837-10.231-25.311-12.102c-6.244-1.232-10.326-5.84-11.047-13.035
		c-0.412-4.114-0.218-8.289-0.296-12.437c-0.003-0.166-0.027-0.342,0.015-0.498c1.847-6.798,7.216-11.369,11.349-16.508
		c3.053-3.796,8.494-5.876,13.9-5.45c3.391,0.268,6.137,0.057,7.622-4.496c2.582,3.922,5.393,6.541,8.809,8.517
		c3.791,2.192,6.757,0.974,5.874-3.155c-0.799-3.732,1.227-5.838,2.336-8.539c3.45-8.396,9.948-14.492,16.522-20.248
		c3.472-3.039,8.424-3.621,13.252-2.438c1.167,0.285,2.812,1.576,3.479-1.02c0.836-3.256,2.449-1.659,3.887-0.362
		c3.495,3.155,6.654,6.813,12.264,8.219c-2.948-5.658,0.047-9.227,3.034-12.938c3.66-4.547,4.815-10.955,10.82-13.859
		c1.497-0.723-0.939-6.166-2.962-6.427c-9.333-1.206-17.5-5.671-26.167-8.712c-10.138-3.557-16.288-10.248-22.494-17.821
		c-1.022-1.247-1.863-4.366-4.638-1.119c-1.125,1.317-1.908-1.026-2.529-2.084c-6.017-10.256-13.784-18.72-25.616-21.869
		C33.259,98.782,31.912,95.536,29.805,92.474z M60.357,220.917c-1.994-1.186-3.938-2.465-5.992-3.537
		c-5.174-2.7-9.437-6.708-16.076-7.022c-10.83-0.513-19.521,4.839-21.276,14.76c-0.291,0.698-0.582,1.397-0.872,2.096
		c-0.503-0.731,0.299-2.436-0.943-2.318c-2.108,0.199-5.556,8.462-3.958,9.421c4.184,2.516,2.95,8.434,7.513,10.5
		c-3.993-0.234-4.846-3.874-7.04-6.425c-0.885,6.808,3.501,13.891,9.254,15.579c3.95,1.16,7.878,0.334,12.063,3.372
		c4.589,3.331,10.578,5.25,15.296,8.989c3.818,3.027,7.916,5.519,12.729,6.621c8.956,2.052,16.74-0.633,19.707-6.781
		c2.907-6.021,2.067-12.931,2.03-18.91c-0.053-8.568-3.212-17.202-1.625-26.09c0.874-4.891,2.916-9.248,6.753-12.475
		c2.489-2.092,4.813-0.418,7.577,0.074c5.727,1.02,10.887,3.045,16.672,5.803c-1.079-3.746-4.543-4.639-5.264-7.771
		c-1.183-5.145-1.349-10.189-0.301-15.313c0.416-2.029,0.56-3.686-1.531-5.229c-4.979-3.674-10.146-6.686-16.573-6.025
		c-3.955,0.405-8.624-1.609-11.209,4.054c-0.756,1.656-4.604,2.058-6.718,3.819c-8.08,6.737-10.202,16.295-12.635,25.773
		c-0.822,3.204,1.888,4.307,3.147,6.289C60.842,220.419,60.6,220.669,60.357,220.917z"/>
	<path fill-rule="evenodd" clip-rule="evenodd" fill="#F19029" d="M123.992,84.382c-4.501-0.686-6.537-4.731-9.759-7.161
		c-1.176-5.282-3.275-10.428-2.381-16.019c0.094-0.327,0.074-0.646-0.061-0.958c1.745-2.312,3.491-4.625,5.236-6.938
		c1.244,0.269,1.96-0.762,2.923-1.187c0.288,0.896,0.62,1.069,1.026,0.064c1.706-0.082,3.412-0.164,5.116-0.245
		c0.956,0.381,1.616,1.526,2.879,1.125c0.622,0.429,1.245,0.858,1.867,1.287c2.37,1.992,4.739,3.984,7.108,5.977l-0.039-0.043
		c-0.62,0.732-0.061,1.311,0.249,1.921c0.657,2.031,1.313,4.062,1.97,6.093c-0.009,1.986-0.018,3.975-0.027,5.961
		c-0.415,1.28-0.829,2.561-1.244,3.842c-1.324,1.379-2.648,2.758-3.972,4.138C131.545,84.431,127.713,84.124,123.992,84.382z"/>
	<path fill-rule="evenodd" clip-rule="evenodd" fill="#402E2D" d="M59.998,54.078c-1.814,0.922-3.628,1.844-5.444,2.768
		c-2.506-0.581-0.793-1.772-0.138-2.24c3.756-2.685,7.917-4.222,12.614-3.481c4.931,0.778,7.963,5.455,6.479,10.401
		c-0.798,2.662-1.82,5.595-3.662,7.529c-3.127,3.283-3.271,6.633-3.455,10.953c-0.256,6.038,4.121,8.277,6.852,11.896
		c0.932,1.236,6.023-3.012,5.382-5.123c-1.048-3.451,1.385-4.433,3.139-5.973c1.737-1.523,4.177-2.504,5.374-4.334
		c2.548-3.897,5.899-7.434,1.002-12.838c-3.917-4.323-4.415-10.509-0.387-16.211c-2.807,9.485,1.152,16.228,8.261,21.717
		c-3.09-0.149-3.663,2.443-4.581,4.434c-2.14,4.635-4.71,8.765-10.015,10.191c0.106,2.344,2.255,0.898,3.092,2.14
		c-2.781,2.229-5.451,4.704-7.121,7.977c-0.667,1.306-2.47,2.63-0.556,4.328c0.812,0.048,1.624,0.097,2.435,0.144
		c-0.053,2.13-0.105,4.26-0.157,6.391c0.006,0.633,0.013,1.266,0.019,1.896c-1.708-0.025-1.691-1.493-1.541-2.404
		c0.499-3.025-1.222-3.781-3.64-4.029c-0.226-0.293-0.451-0.586-0.677-0.878c0.275-5.489-4.373-7.84-7.251-11.308
		c-0.494-0.595-1.552-0.814-1.858-1.447c-0.316-0.65-0.317-1.75,0.034-2.383c2.693-4.854-3.291-11.142,2.546-15.404
		c3.279-2.394,3.081-6.402,4.627-9.597c0.071-0.103,0.225-0.243,0.198-0.303c-0.092-0.208-0.247-0.387-0.378-0.577
		c-1.06-2.3-2.915-3.62-5.292-4.297c-0.491-0.202-0.982-0.404-1.474-0.607c-0.975-0.001-1.949-0.002-2.925-0.002
		C60.999,53.631,60.498,53.854,59.998,54.078z"/>
	<path fill-rule="evenodd" clip-rule="evenodd" fill="#402E2D" d="M2.817,78.263c2.391,4.471,6.505,5.617,11.16,6.127
		c5.64,0.617,10.73,2.896,15.369,6.134c0.556,0.388,1.444,1.024,0.421,1.911c-6.946-3.189-14.03-5.705-21.721-6.724
		C3.344,85.089-0.051,80.423,0,76.214c0.058-4.785,2.961-7.43,7.157-9.064c1.831-0.713,3.56-1.689,5.335-2.546
		c0.126,0.249,0.284,0.476,0.473,0.68c0.095,1.382,0.838,2.008,2.216,1.933c1.209-0.066,1.662-0.794,1.727-1.891l0.097-0.085
		c1.71,0.344,3.42,0.688,5.13,1.032c-0.009,0.824-0.017,1.648-0.025,2.473c-0.093,0.935-0.156,1.857,0.727,2.507
		c0.032,1.8,1.955,3.426,0.488,5.365c-0.131,0.553-0.256,1.104-0.381,1.653c-2.366-2.687-0.255-7.821-5.026-9.192
		c-0.5-0.221-1.001-0.439-1.502-0.659c-5.027,0.249-10.735-1.399-13.597,4.88c-0.116,0.078-0.333,0.161-0.329,0.232
		c0.013,0.234,0.106,0.464,0.168,0.695c0,1.037,0,2.072,0.001,3.109c-0.088,0.104-0.271,0.254-0.246,0.308
		C2.512,77.866,2.676,78.059,2.817,78.263z"/>
	<path fill-rule="evenodd" clip-rule="evenodd" fill="#402E2D" d="M32.032,52.914c-0.721-0.014-1.442-0.029-2.163-0.043
		c-0.295,0.077-0.59,0.154-0.886,0.231c-3.679,2.012-5.584,5.239-6.339,9.253c-0.184,0.486-0.369,0.973-0.553,1.459l0.221,0.206
		c0,0-0.104,0.284-0.105,0.284c-1.67,0.671-4.146-3.133-5.204,0.938c0,0-0.097,0.085-0.097,0.084
		c-0.968-0.316-1.936-0.632-2.903-0.948l-0.265-0.323c4.764-1.431,7.695-4.524,9.686-9.152c1.496-3.477,5.11-4.622,8.807-3.996
		c3.882,0.657,6.473,3.532,6.518,7.153c0.068,5.523,4.297,5.502,7.56,6.945c1.693,0.749,1.852-0.886,2.361-1.781
		c1.059-1.86,1.932-3.83,3.04-5.658c0.633-1.044,1.478-1.346,1.817,0.311c-0.344,0.551-0.73,1.083-1.026,1.661
		c-1.469,2.862-2.238,7.093-4.547,8.241c-2.559,1.272-5.471-2.76-8.698-3.367c-0.554-0.051-1.108-0.102-1.662-0.153
		c-0.059-1.028-0.118-2.056-0.177-3.083c0.063-0.102,0.203-0.24,0.175-0.301c-0.09-0.2-0.242-0.373-0.371-0.556
		c-0.599-2.88-1.797-5.403-4.279-7.158C32.738,52.714,32.459,52.539,32.032,52.914z"/>
	<path fill-rule="evenodd" clip-rule="evenodd" fill="#2E2B2C" d="M119.923,43.895c0.445-3.051,1.479-5.991,5.516-6.034
		c3.797-0.041,6.313,1.749,6.521,5.828c0.185,3.609-2.516,6.602-5.97,6.402C122.415,49.883,120.251,47.918,119.923,43.895z"/>
	<path fill-rule="evenodd" clip-rule="evenodd" fill="#2B2828" d="M110.621,58.27c-1.076,1.017-2.158,2.024-3.686,2.322
		c-0.335-0.161-0.643-0.119-0.923,0.126c-3.046-0.217-5.457-1.345-6.455-4.499c0-1.293,0-2.586,0-3.879
		c1.314-3.113,3.521-4.649,6.957-3.759c3.916,1.015,4.784,4.009,4.714,7.552C111.025,56.845,110.823,57.558,110.621,58.27z"/>
	<path fill-rule="evenodd" clip-rule="evenodd" fill="#484444" d="M129.986,25.485c0,0.541,0,1.082,0.001,1.623
		c-7.619-0.455-13.618,1.903-16.609,9.529c-0.339,0.864-0.684,2.231-1.938,1.458c-1.155-0.711-0.103-1.638,0.303-2.505
		C115.458,27.651,120.268,24.965,129.986,25.485z"/>
	<path fill-rule="evenodd" clip-rule="evenodd" fill="#484444" d="M109.984,41.375c-3.421-0.175-6.473-2.58-10.074-1.671
		c-0.383,0.166-0.767,0.332-1.15,0.498c-3.907-0.42-5.856,3.986-10.137,4.265c6.131-7.502,13.193-8.399,21.214-5.14
		C109.886,40.01,109.935,40.693,109.984,41.375z"/>
	<path fill-rule="evenodd" clip-rule="evenodd" fill="#503529" d="M111.853,61.202c-0.895,5.59,1.205,10.736,2.381,16.019
		c-2.144-0.775-2.635-2.94-2.988-4.608c-0.565-2.673-2.006-3.41-4.352-3.392C110.463,67.732,109.857,63.663,111.853,61.202z"/>
	<path fill-rule="evenodd" clip-rule="evenodd" fill="#402E2D" d="M137.948,60.329c-2.369-1.992-4.738-3.984-7.108-5.977
		c2.005-0.338,4.092,0.667,6.055-0.368C135.061,56.461,138.198,58.114,137.948,60.329z"/>
	<path fill-rule="evenodd" clip-rule="evenodd" fill="#F5F4F4" d="M110.621,58.27c0.202-0.712,0.404-1.425,0.606-2.137
		c2.432,0.081,3.272-3.105,5.801-2.826c-1.746,2.313-3.491,4.625-5.236,6.938C111.402,59.586,111.012,58.928,110.621,58.27z"/>
	<path fill-rule="evenodd" clip-rule="evenodd" fill="#F5F4F4" d="M109.984,41.375c-0.049-0.683-0.099-1.365-0.148-2.048
		c2.324,0.377,1.916,3.202,3.799,4.02C112.042,43.232,110.137,43.811,109.984,41.375z"/>
	<path fill-rule="evenodd" clip-rule="evenodd" fill="#503529" d="M106.94,69.194c-1.417,1.691-3.131,1.913-5.069,1.025
		C103.292,68.548,105.238,69.476,106.94,69.194z"/>
	<path fill-rule="evenodd" clip-rule="evenodd" fill="#F6F6F5" d="M128.973,53.065c-1.264,0.401-1.923-0.744-2.879-1.125
		C127.666,50.752,128.599,51.194,128.973,53.065z"/>
	<path fill-rule="evenodd" clip-rule="evenodd" fill="#F5F4F4" d="M115.603,46.337c-0.212,0.176-0.412,0.341-0.611,0.507
		c-0.191-0.302-0.383-0.604-0.574-0.906c0.255-0.1,0.546-0.322,0.756-0.262C115.361,45.729,115.458,46.096,115.603,46.337z"/>
	<path fill-rule="evenodd" clip-rule="evenodd" fill="#F5F4F4" d="M99.557,52.34c0,1.293,0,2.586,0,3.879
		C98.636,54.926,98.636,53.633,99.557,52.34z"/>
	<path fill-rule="evenodd" clip-rule="evenodd" fill="#F6F6F5" d="M120.978,52.185c-0.406,1.005-0.738,0.832-1.026-0.064
		C120.328,51.59,120.667,51.654,120.978,52.185z"/>
	<path fill-rule="evenodd" clip-rule="evenodd" fill="#F5F4F4" d="M98.76,40.202c0.383-0.166,0.767-0.332,1.15-0.498
		C99.527,39.87,99.143,40.036,98.76,40.202z"/>
	<path fill-rule="evenodd" clip-rule="evenodd" fill="#F5F4F4" d="M106.012,60.718c0.28-0.246,0.588-0.288,0.923-0.126
		C106.679,61.013,106.378,61.1,106.012,60.718z"/>
	<path fill-rule="evenodd" clip-rule="evenodd" fill="#402E2D" d="M12.492,64.604c0.416-0.183,0.832-0.367,1.248-0.55
		c0,0,0.265,0.323,0.265,0.323c-0.347,0.302-0.693,0.605-1.04,0.907C12.776,65.08,12.618,64.853,12.492,64.604z"/>
	<path fill-rule="evenodd" clip-rule="evenodd" fill="#291F20" d="M164.474,65.597c-2.014,2.203-1.592,4.793-1.602,7.241
		c-0.035,8.81,0.439,17.647-1.974,26.284c-3.691,13.211-15.505,20.306-28.8,16.952c-8.462-2.135-16.405-5.467-22.73-11.835
		c-2.985-3.007-6.688-3.992-10.825-3.421c-2.843,0.392-5.382-0.665-7.178-2.516c-0.921-0.95,0.212-2.785,2.057-3.706
		c0.67,3.725,3.251,3.768,6.426,4.519c5.426,1.283,10.133-1.572,15.236-1.073c0.964,0.094,2.248,0.145,2.905-0.383
		c4.588-3.682,11.082-3.795,15.246-8.248c0.771-0.824,1.895-1.943,2.812-1.904c6.969,0.295,11.761-4.273,15.649-8.559
		c3.083-3.398,7.782-6.248,8.43-11.619C160.497,64.264,162.731,65.73,164.474,65.597z"/>
	<path fill-rule="evenodd" clip-rule="evenodd" fill="#442D2B" d="M80.189,108.717c0.449,0.681,1.039,2.008,1.325,1.945
		c5.305-1.159,5.479,3.742,7.472,6.333c1.827,2.375,3.483,4.888,6.13,6.401c3.092,1.769,5.938,2.497,6.14-3.437
		c6.305,5.75,12.987,9.559,20.632,11.516c-0.705,0.289-1.411,0.578-2.117,0.866c-2.232-0.591-4.533-1-6.683-1.812
		c-4.462-1.684-8.226-5.624-13.793-3.622c-1.064,0.383-2.854-0.735-4.112-1.49c-6.468-3.88-10.698-10.177-16.153-15.158
		C79.417,109.745,79.803,109.231,80.189,108.717z"/>
	<path fill-rule="evenodd" clip-rule="evenodd" fill="#491F1F" d="M179.894,99.085c0.292,0.705,0.584,1.409,0.875,2.113
		c-1.787,7.266-6.745,12.498-11.616,17.716c-1.259,1.349-2.922,2.819-5.217,2.345l0.033,0.029c3.506-4.559,8.352-7.971,11.326-12.95
		C177.056,105.39,178.376,102.178,179.894,99.085z"/>
	<path fill-rule="evenodd" clip-rule="evenodd" fill="#57311F" d="M138.858,78.102c0.415-1.28,0.829-2.561,1.244-3.841
		c1.378-1.98,1.332-3.969,0.027-5.961c-0.657-2.031-1.313-4.062-1.97-6.093c0.272-0.318,0.544-0.637,0.817-0.955
		c3.982,6.097,4.351,12.2,0.028,18.31C138.955,79.073,138.907,78.588,138.858,78.102z"/>
	<path fill-rule="evenodd" clip-rule="evenodd" fill="#491F1F" d="M119.772,132.342c0.706-0.288,1.412-0.577,2.117-0.866
		c3.994,1.061,8.133,0.594,12.176,1.354C129.282,133.414,124.5,134.19,119.772,132.342z"/>
	<path fill-rule="evenodd" clip-rule="evenodd" fill="#57311F" d="M123.992,84.382c3.721-0.258,7.553,0.049,10.894-2.142
		c0.41,0.041,0.819,0.083,1.229,0.124C132.567,85.997,128.466,86.309,123.992,84.382z"/>
	<path fill-rule="evenodd" clip-rule="evenodd" fill="#442D2B" d="M22.943,78.271c0.125-0.55,0.25-1.101,0.381-1.653
		c0.244,0.008,0.397,0.125,0.47,0.354c0.378,0.433,0.753,0.865,1.129,1.297c0.937,1.404,2.327,2.65,1.682,4.791
		C24.644,81.901,23.26,80.502,22.943,78.271z"/>
	<path fill-rule="evenodd" clip-rule="evenodd" fill="#402E2D" d="M239.603,24.042c-1.082,1.951-2.309,3.776-5.145,5.62
		c1.322-3.045,2.416-5.046,4.242-6.626C239.001,23.372,239.302,23.707,239.603,24.042z"/>
	<path fill-rule="evenodd" clip-rule="evenodd" fill="#442D2B" d="M17.005,65.241c1.057-4.071,3.533-0.266,5.204-0.938
		c-0.024,0.657-0.049,1.313-0.074,1.97C20.425,65.929,18.715,65.585,17.005,65.241z"/>
	<path fill-rule="evenodd" clip-rule="evenodd" fill="#6F4222" d="M136.115,82.364c-0.409-0.041-0.819-0.083-1.229-0.124
		c1.324-1.38,2.648-2.759,3.972-4.138c0.048,0.485,0.097,0.971,0.146,1.459C138.356,80.821,137.633,82.003,136.115,82.364z"/>
	<path fill-rule="evenodd" clip-rule="evenodd" fill="#442D2B" d="M37.594,64.259c0.554,0.051,1.108,0.102,1.662,0.153
		c-0.702,0.693-0.819,1.94-2.034,2.147C37.346,65.792,37.47,65.025,37.594,64.259z"/>
	<path fill-rule="evenodd" clip-rule="evenodd" fill="#442D2B" d="M79.27,98.356c-0.812-0.047-1.624-0.096-2.435-0.144
		C78.695,97.222,78.695,97.222,79.27,98.356z"/>
	<path fill-rule="evenodd" clip-rule="evenodd" fill="#442D2B" d="M22.836,71.253c-0.882-0.649-0.819-1.572-0.727-2.507
		C22.938,69.411,22.961,70.31,22.836,71.253z"/>
	<path fill-rule="evenodd" clip-rule="evenodd" fill="#402E2D" d="M80.189,108.717c-0.386,0.515-0.772,1.028-1.159,1.543
		c-0.253-0.718-0.688-1.482,0.082-2.092C79.244,108.063,79.819,108.52,80.189,108.717z"/>
	<path fill-rule="evenodd" clip-rule="evenodd" fill="#402E2D" d="M138.976,61.252c-0.272,0.318-0.544,0.637-0.817,0.955
		c-0.31-0.611-0.87-1.19-0.25-1.922C138.682,60.148,138.845,60.682,138.976,61.252z"/>
	<path fill-rule="evenodd" clip-rule="evenodd" fill="#442D2B" d="M37.222,60.318c0.128,0.183,0.28,0.356,0.371,0.556
		c0.028,0.061-0.112,0.199-0.175,0.301C37.198,60.925,37.132,60.639,37.222,60.318z"/>
	<path fill-rule="evenodd" clip-rule="evenodd" fill="#442D2B" d="M2.657,74.228c-0.063-0.231-0.155-0.461-0.168-0.695
		c-0.004-0.071,0.213-0.154,0.329-0.232C2.919,73.636,2.866,73.945,2.657,74.228z"/>
	<path fill-rule="evenodd" clip-rule="evenodd" fill="#442D2B" d="M2.817,78.263c-0.141-0.204-0.305-0.396-0.405-0.618
		c-0.025-0.054,0.158-0.203,0.246-0.308C2.866,77.618,2.919,77.927,2.817,78.263z"/>
	<path fill-rule="evenodd" clip-rule="evenodd" fill="#442D2B" d="M71.191,58.313c0.131,0.19,0.286,0.37,0.378,0.577
		c0.026,0.06-0.127,0.2-0.198,0.303C71.146,58.933,71.086,58.64,71.191,58.313z"/>
	<path fill-rule="evenodd" clip-rule="evenodd" fill="#402E2D" d="M24.923,78.269c-0.375-0.432-0.75-0.864-1.129-1.297
		C24.54,77.079,24.846,77.573,24.923,78.269z"/>
	<path fill-rule="evenodd" clip-rule="evenodd" fill="#442D2B" d="M64.425,53.409c0.491,0.203,0.982,0.405,1.474,0.607
		C65.408,53.813,64.917,53.611,64.425,53.409z"/>
	<path fill-rule="evenodd" clip-rule="evenodd" fill="#442D2B" d="M59.998,54.078c0.5-0.224,1-0.447,1.502-0.671
		C61,53.63,60.5,53.854,59.998,54.078z"/>
	<path fill-rule="evenodd" clip-rule="evenodd" fill="#442D2B" d="M73.273,99.332c0.226,0.292,0.451,0.585,0.677,0.878
		C73.724,99.917,73.499,99.624,73.273,99.332z"/>
	<path fill-rule="evenodd" clip-rule="evenodd" fill="#442D2B" d="M50.895,101.855l0.04-0.093c0.144-0.025,0.288-0.052,0.432-0.078
		C51.209,101.741,51.052,101.798,50.895,101.855z"/>
	<path fill-rule="evenodd" clip-rule="evenodd" fill="#442D2B" d="M32.032,52.914c0.427-0.375,0.706-0.2,0.91,0.247
		C32.6,53.221,32.297,53.139,32.032,52.914z"/>
	<path fill-rule="evenodd" clip-rule="evenodd" fill="#442D2B" d="M28.984,53.101c0.295-0.077,0.591-0.154,0.886-0.231
		C29.612,53.092,29.317,53.169,28.984,53.101z"/>
	<path fill-rule="evenodd" clip-rule="evenodd" fill="#491F1F" d="M163.936,121.259c-0.082,0.252-0.163,0.504-0.244,0.756
		c-0.918-0.627,0.003-0.554,0.277-0.728C163.968,121.288,163.936,121.259,163.936,121.259z"/>
	<path fill-rule="evenodd" clip-rule="evenodd" fill="#402E2D" d="M110.97,180.308c0.065-0.103,0.129-0.206,0.194-0.309
		c-0.082,0.084-0.165,0.168-0.247,0.252C110.917,180.251,110.97,180.308,110.97,180.308z"/>
	<path fill-rule="evenodd" clip-rule="evenodd" fill="#402E2D" d="M192.952,184.286c-0.146-0.052-0.293-0.104-0.441-0.155
		c0.119-0.104,0.238-0.21,0.356-0.315c0.033,0.152,0.066,0.305,0.099,0.457C192.967,184.272,192.952,184.286,192.952,184.286z"/>
	<path fill-rule="evenodd" clip-rule="evenodd" fill="#442D2B" d="M22.092,63.813c0.184-0.486,0.369-0.973,0.553-1.459
		C22.46,62.841,22.276,63.327,22.092,63.813z"/>
	<path fill-rule="evenodd" clip-rule="evenodd" fill="#442D2B" d="M16.414,68.42c0.501,0.22,1.002,0.438,1.502,0.659
		C17.416,68.858,16.915,68.64,16.414,68.42z"/>
	<path fill-rule="evenodd" clip-rule="evenodd" fill="#402E2D" d="M132.988,265.319c0.04-0.121,0.079-0.242,0.119-0.363
		c-0.059,0.104-0.117,0.207-0.176,0.31L132.988,265.319z"/>
	<path fill-rule="evenodd" clip-rule="evenodd" fill="#442D2B" d="M79.131,106.644c-0.006-0.631-0.012-1.264-0.019-1.896
		C79.609,105.373,80.425,105.998,79.131,106.644z"/>
	<path fill-rule="evenodd" clip-rule="evenodd" fill="#E82227" d="M17.013,225.117c1.755-9.921,10.446-15.272,21.276-14.76
		c6.639,0.314,10.902,4.322,16.076,7.022c2.054,1.072,3.998,2.352,5.993,3.532c0.436,0.331,0.871,0.666,1.306,1.001
		c0.653-0.861,0.193-1.354-0.579-1.742c-1.259-1.982-3.969-3.085-3.147-6.289c2.433-9.479,4.555-19.036,12.635-25.773
		c2.113-1.762,5.961-2.163,6.718-3.819c2.585-5.663,7.255-3.648,11.209-4.054c6.427-0.66,11.594,2.352,16.573,6.025
		c2.091,1.543,1.947,3.199,1.531,5.229c-1.048,5.124-0.882,10.169,0.301,15.313c0.72,3.132,4.185,4.024,5.264,7.771
		c-5.786-2.758-10.945-4.783-16.672-5.803c-2.763-0.492-5.088-2.166-7.577-0.074c-3.837,3.227-5.879,7.584-6.753,12.475
		c-1.587,8.888,1.572,17.521,1.625,26.09c0.037,5.979,0.877,12.889-2.03,18.91c-2.967,6.148-10.751,8.833-19.707,6.781
		c-4.814-1.103-8.911-3.594-12.729-6.621c-4.718-3.739-10.707-5.658-15.296-8.989c-4.186-3.038-8.114-2.212-12.063-3.372
		c-5.753-1.688-10.139-8.771-9.254-15.579c2.194,2.551,3.047,6.19,7.04,6.425c-4.563-2.066-3.329-7.984-7.513-10.5
		c-1.598-0.959,1.85-9.222,3.958-9.421c1.243-0.117,0.44,1.587,0.943,2.319c0.762,4.226,2.869,7.097,8.698,8.016
		C20.732,231.955,18.042,229.112,17.013,225.117z M72.727,256.569c-4.096-13.393-5.194-14.883-11.989-16
		C68.229,243.098,66.207,252.288,72.727,256.569z M50.361,231.847c2.12,2.303,4.479,4.109,8.313,4.279
		C56.427,232.683,53.282,232.495,50.361,231.847z M60.465,237.021c-0.229-0.139-0.606-0.524-1.027-0.578
		c-0.372-0.047-1.112,0.107-0.607,0.824c0.257,0.364,0.679,0.76,1.082,0.833C60.334,238.175,60.914,237.946,60.465,237.021z"/>
	<path fill-rule="evenodd" clip-rule="evenodd" fill="#491F1F" d="M17.013,225.117c1.028,3.995,3.719,6.838,7.826,10.112
		c-5.829-0.919-7.937-3.79-8.698-8.016C16.432,226.515,16.722,225.815,17.013,225.117z"/>
	<path fill-rule="evenodd" clip-rule="evenodd" fill="#6F4222" d="M140.129,68.3c1.305,1.992,1.352,3.98-0.027,5.961
		C140.111,72.274,140.12,70.286,140.129,68.3z"/>
	<path fill-rule="evenodd" clip-rule="evenodd" fill="#442D2B" d="M12.965,65.284c0.346-0.302,0.693-0.605,1.04-0.907
		c0.968,0.316,1.936,0.632,2.903,0.948c-0.065,1.097-0.518,1.826-1.727,1.892C13.803,67.292,13.06,66.667,12.965,65.284z"/>
	<path fill-rule="evenodd" clip-rule="evenodd" fill="#4D1F1E" d="M72.727,256.569c-6.521-4.281-4.499-13.472-11.989-16
		C67.533,241.687,68.631,243.177,72.727,256.569z"/>
	<path fill-rule="evenodd" clip-rule="evenodd" fill="#4D1F1E" d="M50.361,231.847c2.921,0.648,6.066,0.836,8.313,4.279
		C54.84,235.956,52.48,234.149,50.361,231.847z"/>
	<path fill-rule="evenodd" clip-rule="evenodd" fill="#4D1F1E" d="M60.465,237.021c0.449,0.926-0.131,1.154-0.552,1.079
		c-0.403-0.073-0.825-0.469-1.082-0.833c-0.504-0.717,0.236-0.871,0.607-0.824C59.858,236.496,60.236,236.882,60.465,237.021z"/>
	<path fill-rule="evenodd" clip-rule="evenodd" fill="#402E2D" d="M61.085,220.171c0.772,0.389,1.232,0.881,0.579,1.742
		c-0.435-0.335-0.87-0.67-1.306-1.001C60.6,220.669,60.842,220.419,61.085,220.171z"/>
</g>
</svg>
