<?xml version="1.0" encoding="utf-8"?>
<!-- Generator: Adobe Illustrator 16.0.0, SVG Export Plug-In . SVG Version: 6.00 Build 0)  -->
<!DOCTYPE svg PUBLIC "-//W3C//DTD SVG 1.1//EN" "http://www.w3.org/Graphics/SVG/1.1/DTD/svg11.dtd">
<svg version="1.1" id="Layer_1" xmlns="http://www.w3.org/2000/svg" xmlns:xlink="http://www.w3.org/1999/xlink" x="0px" y="0px"
	 width="619.924px" height="228.425px" viewBox="0 0 619.924 228.425" enable-background="new 0 0 619.924 228.425"
	 xml:space="preserve">
<g>
	<path fill-rule="evenodd" clip-rule="evenodd" fill="#2B2723" d="M309.964,228.371c-94.667,0-189.335-0.043-284.003,0.054
		c-12.171,0.013-22.618-8.163-25.253-19.54c-0.485-2.094-0.697-4.22-0.698-6.364c-0.006-35.16-0.021-70.321,0.005-105.482
		C0.023,84.54,8,74.589,20.156,71.774c1.579-0.365,3.186-0.51,4.813-0.509c65.933,0.007,131.866-0.001,197.8,0.034
		c1.496,0.001,2.028-0.332,2.387-1.911c6.536-28.735,23.524-49.117,49.981-61.653c12.76-6.046,26.37-8.501,40.452-7.529
		c22.139,1.528,41.004,10.423,56.566,26.188c11.982,12.138,19.761,26.6,23.084,43.374c0.268,1.353,0.857,1.525,2.053,1.524
		c65.515-0.027,131.03,0.04,196.546-0.082c12.101-0.022,22.062,7.9,25.021,18.251c0.723,2.531,1.051,5.105,1.052,7.722
		c0.009,35.108,0.024,70.217-0.003,105.326c-0.01,13.236-8.663,23.392-21.721,25.647c-1.503,0.26-3.02,0.211-4.533,0.211
		C499.091,228.372,404.527,228.371,309.964,228.371z M309.978,226.035c94.771,0,189.542,0.001,284.313-0.002
		c12.774-0.001,22.871-9.874,22.892-22.629c0.061-35.735,0.061-71.471,0-107.206c-0.021-12.472-9.97-22.398-22.406-22.412
		c-66.193-0.07-132.386-0.093-198.578-0.131c-2.628-0.002-2.628-0.001-3.115-2.493c-7.23-36.962-38.48-65.259-75.774-68.452
		c-14.142-1.21-27.857,0.934-40.73,6.947c-26.777,12.509-43.496,33.172-49.419,62.29c-0.284,1.397-0.748,1.747-2.163,1.746
		c-32.391-0.031-64.782,0.001-97.173,0.019c-33.802,0.018-67.604,0.032-101.405,0.055c-1.252,0.001-2.522-0.053-3.755,0.122
		C10.338,75.633,2.257,84.965,2.253,97.457c-0.01,34.899-0.004,69.799-0.001,104.697c0,1.619,0.031,3.241,0.349,4.836
		c2.288,11.474,11.518,19.044,23.221,19.044C120.54,226.035,215.258,226.035,309.978,226.035z"/>
	<path fill-rule="evenodd" clip-rule="evenodd" fill="#FCE100" d="M309.978,226.035c-94.719,0-189.438,0-284.156-0.001
		c-11.703,0-20.933-7.57-23.221-19.044c-0.318-1.595-0.348-3.217-0.349-4.836c-0.003-34.898-0.009-69.798,0.001-104.697
		c0.003-12.492,8.084-21.824,20.408-23.568c1.233-0.175,2.502-0.121,3.755-0.122c33.802-0.022,67.604-0.037,101.405-0.055
		c32.391-0.018,64.782-0.05,97.173-0.019c1.415,0.001,1.879-0.349,2.163-1.746c5.924-29.118,22.642-49.781,49.419-62.29
		c12.873-6.014,26.588-8.158,40.73-6.947c37.294,3.193,68.544,31.49,75.774,68.452c0.487,2.492,0.487,2.491,3.115,2.493
		c66.192,0.038,132.385,0.061,198.578,0.131c12.437,0.014,22.386,9.94,22.406,22.412c0.061,35.735,0.061,71.471,0,107.206
		c-0.021,12.755-10.117,22.628-22.892,22.629C499.52,226.036,404.748,226.035,309.978,226.035z M309.608,214.25
		c94.098,0,188.195,0.001,282.293-0.002c8.046-0.001,13.624-5.413,13.63-13.345c0.024-34.064,0.013-68.13,0.007-102.195
		c-0.001-2.166-0.39-4.262-1.42-6.19c-2.771-5.188-7.303-7.088-12.964-7.088c-187.569,0.016-375.137,0.013-562.706,0.019
		c-0.938,0-1.883,0.028-2.814,0.139c-6.998,0.831-11.625,5.965-11.628,13.008c-0.017,34.17-0.006,68.34-0.013,102.51
		c0,1.368,0.15,2.703,0.548,4.015c1.752,5.767,6.619,9.13,13.243,9.13C121.727,214.25,215.667,214.25,309.608,214.25z
		 M310.096,73.478c14.31,0,28.619,0,42.929,0c6.528,0,13.057,0.012,19.585-0.005c3.48-0.008,5.616-2.56,5.038-5.991
		c-0.121-0.718-0.311-1.425-0.486-2.132c-3.766-15.208-12.249-27.31-24.667-36.621c-16.495-12.369-35.003-16.962-55.343-13.146
		c-12.172,2.283-23.02,7.618-32.443,15.666c-11.24,9.599-18.913,21.427-21.933,36.058c-0.719,3.481,1.489,6.168,5.12,6.169
		C268.628,73.48,289.362,73.478,310.096,73.478z"/>
	<path fill-rule="evenodd" clip-rule="evenodd" fill="#282B23" d="M309.608,214.25c-93.941,0-187.882,0-281.823-0.001
		c-6.624,0-11.491-3.363-13.243-9.13c-0.398-1.312-0.548-2.646-0.548-4.015c0.006-34.17-0.004-68.34,0.013-102.51
		c0.003-7.043,4.63-12.177,11.628-13.008c0.931-0.11,1.876-0.139,2.814-0.139c187.568-0.006,375.136-0.003,562.706-0.019
		c5.661,0,10.193,1.899,12.964,7.088c1.03,1.929,1.419,4.024,1.42,6.19c0.006,34.065,0.018,68.131-0.007,102.195
		c-0.006,7.932-5.584,13.344-13.63,13.345C497.804,214.251,403.706,214.25,309.608,214.25z M309.647,87.798
		c-93.42,0-186.841,0-280.262,0.001c-0.993,0-1.985,0.027-2.978,0.025c-1.33-0.003-2.588,0.313-3.776,0.884
		c-4.391,2.106-6.048,5.822-6.052,10.458c-0.012,17.451-0.004,34.902-0.004,52.354c0,16.354-0.007,32.707,0.004,49.062
		c0.003,5.239,2.389,8.971,6.703,10.646c1.653,0.643,3.372,0.622,5.094,0.622c106.065,0.001,212.13,0.001,318.195,0.001
		c81.561,0,163.121,0,244.682-0.001c1.253,0,2.511,0.029,3.742-0.257c5.198-1.206,8.348-5.409,8.349-11.181
		c0.007-29.573,0.003-59.146,0.003-88.719c0-4.284,0.026-8.569-0.007-12.854c-0.04-5.125-2.893-9.083-7.523-10.577
		c-1.628-0.524-3.299-0.462-4.966-0.462C497.116,87.798,403.382,87.798,309.647,87.798z"/>
	<path fill-rule="evenodd" clip-rule="evenodd" fill="#2B2723" d="M310.096,73.478c-20.734,0-41.467,0.003-62.201-0.003
		c-3.631-0.001-5.839-2.688-5.12-6.169c3.021-14.631,10.693-26.459,21.933-36.058c9.423-8.047,20.271-13.382,32.443-15.666
		c20.34-3.815,38.848,0.778,55.343,13.146c12.418,9.312,20.901,21.413,24.667,36.621c0.176,0.707,0.365,1.414,0.486,2.132
		c0.578,3.432-1.558,5.983-5.038,5.991c-6.528,0.017-13.057,0.005-19.585,0.005C338.715,73.478,324.405,73.478,310.096,73.478z
		 M310.051,71.072c10.497,0,20.995,0,31.493,0c10.289,0,20.578,0.008,30.866-0.007c2.539-0.004,3.513-1.25,2.944-3.72
		c-0.315-1.369-0.649-2.738-1.058-4.082c-4.603-15.13-13.92-26.716-27.001-35.312c-14.253-9.367-29.924-13.122-46.834-10.5
		c-16.995,2.634-31.133,10.682-42.338,23.742c-6.424,7.486-10.848,16.041-13.022,25.699c-0.745,3.308-0.001,4.179,3.373,4.179
		C269,71.072,289.525,71.072,310.051,71.072z"/>
	<path fill-rule="evenodd" clip-rule="evenodd" fill="#04A770" d="M309.647,87.798c93.734,0,187.469,0,281.203,0.003
		c1.667,0,3.338-0.063,4.966,0.462c4.631,1.494,7.483,5.452,7.523,10.577c0.033,4.284,0.007,8.569,0.007,12.854
		c0,29.573,0.004,59.146-0.003,88.719c-0.001,5.771-3.15,9.975-8.349,11.181c-1.231,0.286-2.489,0.257-3.742,0.257
		c-81.561,0.001-163.121,0.001-244.682,0.001c-106.064,0-212.13,0-318.195-0.001c-1.722,0-3.44,0.021-5.094-0.622
		c-4.314-1.676-6.7-5.407-6.703-10.646c-0.011-16.354-0.004-32.708-0.004-49.062c0-17.451-0.007-34.902,0.004-52.354
		c0.003-4.636,1.661-8.352,6.052-10.458c1.188-0.57,2.446-0.887,3.776-0.884c0.993,0.002,1.985-0.025,2.978-0.025
		C122.806,87.798,216.227,87.798,309.647,87.798z M236.154,157.083c-0.543-3.604-0.962-7.021-1.584-10.402
		c-2.434-13.224-5.748-26.257-8.621-39.387c-0.198-0.906-0.52-1.281-1.529-1.262c-3.551,0.071-7.105,0.089-10.655-0.005
		c-1.288-0.034-1.641,0.285-1.637,1.61c0.049,17.291,0.032,34.581,0.032,51.871c0,10.865,0.019,21.73-0.027,32.596
		c-0.005,1.156,0.259,1.513,1.454,1.477c3.027-0.092,6.061-0.104,9.087,0.003c1.36,0.049,1.719-0.289,1.725-1.696
		c0.06-15.775-0.178-31.549-0.425-47.321c-0.009-0.541-0.173-1.112,0.297-1.916c3.276,18.017,7.794,35.493,11.801,53.087
		c4.453-17.616,8.992-35.154,12.347-52.979c0.122,0.519,0.135,1.022,0.12,1.525c-0.481,15.929-0.252,31.861-0.334,47.792
		c-0.005,1.117,0.196,1.545,1.431,1.506c3.131-0.097,6.27-0.101,9.4,0.002c1.255,0.041,1.416-0.415,1.415-1.512
		c-0.029-28.207-0.028-56.415-0.001-84.623c0.001-1.047-0.191-1.443-1.343-1.418c-3.603,0.078-7.209,0.088-10.812-0.005
		c-1.175-0.031-1.481,0.436-1.692,1.45c-0.613,2.958-1.333,5.894-2.004,8.839C241.531,129.773,238.238,143.184,236.154,157.083z
		 M419.057,149.822c0,14.05,0.021,28.101-0.033,42.151c-0.005,1.326,0.348,1.643,1.637,1.608c3.549-0.094,7.104-0.095,10.653,0
		c1.304,0.035,1.64-0.314,1.634-1.625c-0.055-11.805-0.037-23.609-0.018-35.414c0.001-0.622-0.394-1.724,0.875-1.503
		c1.008,0.175,2.492-0.962,2.877,1.24c2.099,12.012,4.333,24.001,6.47,36.007c0.173,0.969,0.464,1.302,1.471,1.286
		c3.916-0.059,7.835-0.065,11.752,0.002c1.226,0.021,1.298-0.344,1.071-1.437c-2.769-13.313-5.477-26.639-8.211-39.958
		c-0.146-0.714-0.077-1.238,0.531-1.79c2.819-2.558,4.584-5.787,5.642-9.404c1.747-5.973,1.823-12.061,0.891-18.147
		c-1.718-11.204-8.229-16.737-19.534-16.775c-5.38-0.018-10.761,0.047-16.14-0.038c-1.341-0.021-1.603,0.373-1.598,1.645
		C419.074,121.721,419.057,135.771,419.057,149.822z M161.782,193.546c4.48,0,8.858-0.002,13.237,0.001
		c0.93,0.001,0.712-0.715,0.771-1.238c0.638-5.649,1.285-11.299,1.883-16.952c0.086-0.818,0.411-1.048,1.182-1.039
		c2.82,0.031,5.641,0.03,8.461,0.001c0.713-0.008,0.999,0.202,1.059,0.953c0.132,1.663,0.383,3.315,0.568,4.975
		c0.452,4.044,0.897,8.089,1.335,12.134c0.081,0.746,0.257,1.209,1.214,1.194c3.969-0.058,7.939-0.042,11.909-0.01
		c0.812,0.007,0.932-0.26,0.815-1.009c-1.696-10.868-3.362-21.741-5.038-32.612c-1.732-11.232-3.473-22.463-5.202-33.695
		c-0.976-6.337-1.935-12.678-2.898-19.018c-0.108-0.712-0.256-1.21-1.226-1.197c-4.387,0.062-8.775,0.042-13.162,0.013
		c-0.773-0.005-1.095,0.231-1.219,1.021c-1.766,11.331-3.553,22.658-5.352,33.984c-1.726,10.862-3.478,21.722-5.206,32.584
		C163.866,180.219,162.841,186.807,161.782,193.546z M54.515,104.641c-7.948,0.097-13.663,4.038-16.275,11.352
		c-1.812,5.074-2.085,10.305-1.175,15.593c1.255,7.292,5.03,13.292,9.789,18.76c3.425,3.936,7.182,7.6,9.984,12.045
		c3.262,5.173,3.934,10.796,2.655,16.694c-0.397,1.83-1.661,2.857-3.505,3.101c-1.842,0.243-3.261-0.486-4.251-2.045
		c-0.648-1.021-1.029-2.157-1.351-3.316c-0.616-2.221-0.856-4.504-1.134-6.78c-0.063-0.521-0.031-1.074-0.86-0.923
		c-4,0.729-8.003,1.446-12.009,2.143c-0.689,0.119-0.611,0.507-0.562,1.02c0.293,3.071,0.816,6.101,1.744,9.043
		c2.457,7.795,7.214,12.812,15.82,13.62c8.267,0.776,15.683-3.473,18.634-11.262c3.026-7.987,2.442-15.989-0.487-23.859
		c-2.452-6.586-6.832-11.899-11.607-16.925c-2.553-2.687-5.066-5.41-7.127-8.517c-2.801-4.221-3.257-8.842-2.334-13.666
		c0.475-2.48,2.135-3.63,4.493-3.348c1.699,0.204,2.65,1.335,3.294,2.79c0.982,2.221,1.378,4.584,1.589,6.979
		c0.094,1.063,0.378,1.509,1.617,1.207c3.441-0.839,6.916-1.548,10.388-2.254c0.96-0.194,1.265-0.627,1.116-1.589
		c-0.384-2.476-0.834-4.935-1.601-7.323C68.71,108.935,62.802,104.54,54.515,104.641z M138.871,104.641
		c-8.119,0.069-13.793,3.904-16.337,11.192c-1.808,5.183-2.063,10.517-1.115,15.908c1.271,7.234,5.036,13.177,9.75,18.605
		c3.488,4.017,7.338,7.738,10.144,12.312c3.136,5.113,3.746,10.645,2.499,16.424c-0.395,1.828-1.658,2.859-3.503,3.104
		c-1.842,0.243-3.263-0.487-4.25-2.044c-0.647-1.021-1.034-2.152-1.354-3.314c-0.614-2.222-0.861-4.504-1.128-6.781
		c-0.078-0.66-0.166-1.063-1.014-0.904c-3.841,0.724-7.69,1.408-11.542,2.073c-0.654,0.113-1.007,0.214-0.907,1.055
		c0.367,3.06,0.841,6.093,1.764,9.039c2.468,7.877,7.298,12.864,15.959,13.66c8.11,0.745,15.588-3.57,18.499-11.262
		c3.002-7.934,2.475-15.889-0.442-23.705c-2.498-6.691-7.026-12.02-11.974-17.029c-2.573-2.605-4.852-5.462-6.85-8.536
		c-2.75-4.229-3.189-8.86-2.298-13.688c0.371-2.006,1.593-3.184,3.216-3.376c2.014-0.237,3.367,0.463,4.349,2.343
		c0.359,0.687,0.626,1.431,0.854,2.174c0.535,1.75,0.848,3.547,0.99,5.372c0.069,0.882,0.231,1.396,1.413,1.109
		c3.542-0.859,7.117-1.59,10.692-2.307c0.96-0.192,1.126-0.675,0.997-1.523c-0.378-2.476-0.829-4.935-1.592-7.325
		C153.054,108.965,147.173,104.57,138.871,104.641z M372.065,172.596c0.044-4.27-0.76-8.646-2.441-12.868
		c-2.584-6.489-6.928-11.721-11.753-16.625c-2.642-2.686-5.01-5.604-7.042-8.78c-2.68-4.19-3.145-8.778-2.236-13.549
		c0.474-2.49,2.097-3.652,4.451-3.409c1.705,0.177,2.673,1.278,3.328,2.736c1.019,2.266,1.411,4.683,1.631,7.129
		c0.092,1.028,0.396,1.388,1.525,1.12c3.497-0.83,7.019-1.562,10.541-2.277c0.915-0.187,1.208-0.603,1.03-1.498
		c-0.346-1.737-0.563-3.502-0.975-5.223c-2.236-9.378-7.532-14.04-16.601-14.682c-7.343-0.519-13.632,3.215-16.562,9.951
		c-2.359,5.425-2.718,11.102-1.753,16.881c1.228,7.357,5.041,13.393,9.84,18.894c3.326,3.814,6.92,7.403,9.729,11.649
		c3.322,5.021,4.006,10.55,3.074,16.354c-0.361,2.251-1.641,3.468-3.619,3.78c-2.003,0.316-3.646-0.567-4.677-2.638
		c-0.438-0.879-0.753-1.83-1.023-2.777c-0.618-2.163-0.875-4.393-1.102-6.625c-0.056-0.542-0.01-1.188-0.948-1.013
		c-3.894,0.726-7.79,1.437-11.695,2.096c-0.809,0.136-0.842,0.518-0.783,1.18c0.31,3.494,0.981,6.906,2.163,10.217
		c2.611,7.315,7.521,11.61,15.481,12.342c7.347,0.676,14.144-2.73,17.597-9.25C371.375,181.695,372.125,177.366,372.065,172.596z
		 M81.389,149.816c0,14.054,0.02,28.107-0.032,42.161c-0.005,1.322,0.352,1.622,1.64,1.614c10.292-0.055,20.584-0.045,30.876-0.009
		c1.046,0.004,1.45-0.199,1.423-1.35c-0.079-3.394-0.073-6.792-0.002-10.187c0.023-1.087-0.256-1.407-1.373-1.396
		c-5.642,0.059-11.284,0.007-16.927,0.046c-0.966,0.007-1.366-0.174-1.359-1.264c0.045-8.046,0.042-16.092,0.002-24.137
		c-0.005-1.035,0.3-1.321,1.326-1.306c3.917,0.058,7.837-0.013,11.754,0.047c1.042,0.017,1.318-0.303,1.301-1.318
		c-0.059-3.499-0.062-7.001,0.002-10.5c0.019-1.045-0.3-1.329-1.322-1.315c-3.865,0.055-7.732-0.006-11.598,0.041
		c-1.008,0.012-1.48-0.147-1.469-1.335c0.057-6.373,0.051-12.747,0.004-19.121c-0.008-1.105,0.337-1.414,1.423-1.403
		c5.276,0.05,10.554-0.01,15.83,0.048c1.134,0.012,1.534-0.232,1.501-1.455c-0.091-3.394-0.088-6.792-0.001-10.186
		c0.03-1.188-0.307-1.462-1.47-1.456c-9.979,0.049-19.958,0.054-29.936-0.005c-1.305-0.008-1.63,0.318-1.625,1.624
		C81.408,121.709,81.389,135.763,81.389,149.816z M466.893,149.734c0,14.106,0.01,28.214-0.021,42.32
		c-0.002,1.074,0.138,1.546,1.411,1.539c10.396-0.057,20.795-0.046,31.191-0.01c1.016,0.003,1.353-0.255,1.334-1.302
		c-0.062-3.396-0.083-6.794,0.008-10.188c0.033-1.229-0.38-1.455-1.509-1.443c-5.59,0.057-11.182-0.003-16.771,0.051
		c-1.088,0.01-1.403-0.271-1.396-1.381c0.048-7.993,0.05-15.988-0.002-23.981c-0.007-1.156,0.395-1.362,1.434-1.348
		c3.865,0.056,7.732-0.017,11.598,0.047c1.071,0.018,1.434-0.229,1.408-1.364c-0.077-3.446-0.089-6.897,0.005-10.344
		c0.033-1.244-0.405-1.45-1.517-1.432c-3.813,0.064-7.628-0.021-11.441,0.053c-1.164,0.022-1.5-0.278-1.488-1.471
		c0.063-6.269,0.059-12.539,0.004-18.809c-0.011-1.197,0.263-1.613,1.541-1.595c5.276,0.073,10.554,0.005,15.83,0.052
		c1.063,0.009,1.452-0.254,1.428-1.387c-0.072-3.395-0.091-6.793,0.008-10.187c0.037-1.286-0.393-1.524-1.576-1.52
		c-9.927,0.046-19.854,0.054-29.781-0.006c-1.348-0.009-1.738,0.283-1.732,1.695C466.916,121.729,466.893,135.731,466.893,149.734z
		 M272.125,149.767c0,14.105,0.013,28.211-0.024,42.316c-0.003,1.129,0.227,1.515,1.449,1.509
		c10.344-0.052,20.688-0.048,31.032-0.004c1.14,0.005,1.538-0.237,1.505-1.452c-0.087-3.342-0.086-6.688,0-10.029
		c0.03-1.201-0.338-1.47-1.493-1.457c-5.694,0.062-11.389-0.01-17.083,0.058c-1.196,0.015-1.462-0.325-1.455-1.479
		c0.052-7.889,0.051-15.777,0.002-23.666c-0.007-1.175,0.221-1.613,1.513-1.582c3.864,0.094,7.732,0.003,11.597,0.056
		c0.964,0.013,1.264-0.27,1.251-1.23c-0.047-3.5-0.057-7.001,0.004-10.5c0.02-1.095-0.312-1.424-1.411-1.405
		c-3.813,0.063-7.628-0.014-11.44,0.047c-1.099,0.019-1.536-0.171-1.521-1.424c0.071-6.32,0.063-12.643,0.005-18.963
		c-0.011-1.175,0.306-1.494,1.48-1.479c5.224,0.063,10.449-0.002,15.672,0.051c1.119,0.012,1.556-0.211,1.523-1.449
		c-0.091-3.394-0.087-6.792-0.001-10.186c0.03-1.189-0.314-1.467-1.476-1.461c-9.821,0.048-19.644,0.06-29.464-0.01
		c-1.416-0.01-1.703,0.387-1.698,1.737C272.145,121.765,272.125,135.766,272.125,149.767z M509.927,149.839
		c0,14.051,0.012,28.102-0.021,42.152c-0.003,1.137,0.16,1.612,1.487,1.604c10.342-0.063,20.685-0.05,31.026-0.012
		c1.058,0.004,1.441-0.222,1.416-1.36c-0.077-3.393-0.074-6.79-0.001-10.184c0.023-1.101-0.28-1.399-1.383-1.389
		c-5.798,0.056-11.597,0.002-17.394,0.049c-1.021,0.009-1.311-0.269-1.305-1.299c0.041-8.044,0.044-16.088-0.003-24.132
		c-0.006-1.067,0.344-1.289,1.331-1.277c3.917,0.052,7.835-0.007,11.752,0.041c0.976,0.012,1.372-0.189,1.351-1.274
		c-0.068-3.498-0.074-7,0.002-10.498c0.025-1.158-0.397-1.372-1.44-1.357c-3.864,0.055-7.731-0.017-11.596,0.046
		c-1.082,0.019-1.409-0.266-1.399-1.379c0.053-6.319,0.064-12.641-0.007-18.96c-0.014-1.286,0.409-1.54,1.59-1.527
		c5.38,0.057,10.761-0.015,16.14,0.054c1.21,0.016,1.479-0.354,1.453-1.501c-0.076-3.341-0.073-6.686-0.002-10.027
		c0.025-1.166-0.208-1.586-1.503-1.578c-9.977,0.061-19.954,0.063-29.93-0.002c-1.358-0.009-1.597,0.401-1.593,1.658
		C509.944,121.737,509.927,135.788,509.927,149.839z M400.318,156.546c0-11.958,0.017-23.916-0.025-35.874
		c-0.004-1.208,0.285-1.634,1.555-1.593c2.922,0.094,5.849-0.013,8.771,0.051c1.103,0.024,1.567-0.197,1.534-1.445
		c-0.09-3.444-0.069-6.893-0.008-10.338c0.019-1.031-0.285-1.309-1.31-1.306c-11.749,0.035-23.499,0.032-35.248,0.004
		c-0.96-0.002-1.377,0.159-1.354,1.26c0.073,3.497,0.069,6.998,0.002,10.495c-0.021,1.055,0.323,1.344,1.329,1.326
		c2.976-0.05,5.954,0.033,8.929-0.043c1.195-0.03,1.628,0.265,1.602,1.548c-0.084,4.071-0.031,8.146-0.031,12.219
		c0,19.634,0.012,39.269-0.024,58.903c-0.003,1.319,0.176,1.909,1.729,1.853c3.651-0.135,7.312-0.107,10.964-0.01
		c1.329,0.036,1.623-0.36,1.618-1.646C400.298,180.149,400.318,168.348,400.318,156.546z M559.846,156.313
		c0,11.907,0.019,23.813-0.029,35.721c-0.004,1.226,0.301,1.59,1.545,1.558c3.445-0.087,6.894-0.014,10.34-0.035
		c2.358-0.015,2.081,0.357,2.082-2.063c0.008-23.553,0.016-47.106-0.023-70.659c-0.003-1.33,0.262-1.821,1.7-1.763
		c2.972,0.12,5.953,0.008,8.929,0.053c0.883,0.014,1.163-0.254,1.151-1.15c-0.046-3.604-0.05-7.207,0.002-10.811
		c0.013-0.917-0.293-1.12-1.156-1.118c-11.698,0.025-23.396,0.026-35.095,0c-0.891-0.002-1.147,0.265-1.137,1.145
		c0.044,3.551,0.065,7.104-0.01,10.653c-0.023,1.104,0.394,1.298,1.357,1.281c2.872-0.047,5.749,0.077,8.615-0.055
		c1.508-0.069,1.763,0.47,1.757,1.835C559.823,132.708,559.846,144.511,559.846,156.313z M592.493,208.597
		c4.228,0.003,7.371-3.083,7.376-7.24c0.004-4.163-3.125-7.238-7.364-7.238c-4.003,0-6.98,3.08-6.983,7.226
		C585.518,205.478,588.513,208.594,592.493,208.597z"/>
	<path fill-rule="evenodd" clip-rule="evenodd" fill="#04A770" d="M310.051,71.072c-20.526,0-41.051,0-61.577-0.001
		c-3.374,0-4.118-0.871-3.373-4.179c2.174-9.658,6.599-18.213,13.022-25.699c11.206-13.06,25.344-21.108,42.338-23.742
		c16.91-2.622,32.581,1.134,46.834,10.5c13.081,8.596,22.398,20.182,27.001,35.312c0.408,1.344,0.742,2.713,1.058,4.082
		c0.568,2.47-0.405,3.716-2.944,3.72c-10.288,0.015-20.577,0.007-30.866,0.007C331.046,71.072,320.548,71.072,310.051,71.072z
		 M336.542,46.195c5.744-3.105,4.056-11.677-1.042-13.641c-3.637-1.401-7.157-1.229-10.415,1.051
		c-2.684,1.877-2.658,1.913-0.285,4.137c0.608,0.57,1.129,1.377,1.852,1.653c0.988,0.377,1.291-0.934,2.06-1.303
		c1.443-0.693,2.864-1.031,4.321-0.185c1.165,0.677,1.516,1.797,1.414,3.087c-0.134,1.703-1.448,2.635-3.771,2.679
		c-2.23,0.043-2.23,0.043-2.231,2.199c0,0.157,0,0.313,0,0.47c0,2.837,0,2.837,2.886,2.982c2.32,0.117,3.868,1.493,4.02,3.575
		c0.12,1.653-0.414,2.983-1.936,3.786c-1.669,0.879-3.736,0.537-5.281-0.657c-0.725-0.561-0.878-1.977-1.858-1.812
		c-0.891,0.151-1.659,1.019-2.481,1.57c-0.347,0.232-0.675,0.5-1.042,0.692c-0.757,0.397-0.848,0.784-0.338,1.557
		c2.316,3.502,5.528,5.039,9.701,4.827c4.235-0.214,7.497-2.579,8.523-6.347C341.888,51.927,340.657,48.748,336.542,46.195z
		 M306.721,62.461c1.463,0,2.927,0.028,4.389-0.009c1.347-0.033,3.128,0.584,3.93-0.23c0.94-0.954,0.162-2.778,0.33-4.212
		c0.12-1.017-0.322-1.218-1.245-1.197c-2.507,0.058-5.015,0.02-7.522,0.02c-2.682,0-2.861-0.305-1.542-2.708
		c0.25-0.455,0.563-0.879,0.878-1.293c1.151-1.513,2.626-2.681,4.14-3.798c1.651-1.22,3.166-2.562,4.181-4.384
		c2.528-4.541,0.91-10.391-3.521-12.146c-3.613-1.43-7.179-1.12-10.417,1.183c-2.601,1.849-2.608,2.186-0.47,4.512
		c0.035,0.038,0.07,0.077,0.105,0.116c1.587,1.736,1.587,1.736,3.336,0.305c1.575-1.289,4.048-1.471,5.218-0.383
		c1.125,1.046,1.102,3.875-0.079,5.389c-0.316,0.406-0.716,0.758-1.119,1.084c-0.729,0.591-1.482,1.153-2.24,1.709
		c-5.056,3.71-7.041,8.852-7.053,14.951c-0.002,0.94,0.341,1.124,1.182,1.108C301.706,62.432,304.213,62.461,306.721,62.461z
		 M288.018,47.334c0-4.642,0.01-9.283-0.016-13.924c-0.002-0.443,0.334-1.204-0.474-1.253c-1.402-0.087-2.814-0.036-4.221-0.02
		c-0.571,0.006-0.557,0.495-0.681,0.889c-0.561,1.791-1.767,2.957-3.598,3.315c-0.845,0.166-1.058,0.48-1.059,1.307
		c-0.003,2.587-0.042,2.587,2.488,2.588c0.208,0,0.421,0.026,0.625-0.005c1.008-0.155,1.318,0.23,1.309,1.271
		c-0.052,5.579-0.037,11.159-0.015,16.739c0.005,1.345-0.574,3.112,0.228,3.925c0.876,0.888,2.671,0.152,4.052,0.309
		c1.104,0.126,1.402-0.274,1.388-1.373C287.982,56.513,288.018,51.923,288.018,47.334z"/>
	<path fill-rule="evenodd" clip-rule="evenodd" fill="#FDFEFE" d="M236.154,157.083c2.084-13.899,5.377-27.31,8.443-40.768
		c0.671-2.945,1.391-5.881,2.004-8.839c0.21-1.015,0.517-1.481,1.692-1.45c3.602,0.093,7.208,0.083,10.812,0.005
		c1.152-0.025,1.344,0.371,1.343,1.418c-0.027,28.208-0.028,56.416,0.001,84.623c0.001,1.097-0.16,1.553-1.415,1.512
		c-3.131-0.103-6.269-0.099-9.4-0.002c-1.235,0.039-1.437-0.389-1.431-1.506c0.083-15.931-0.147-31.863,0.334-47.792
		c0.015-0.503,0.002-1.007-0.12-1.525c-3.355,17.824-7.895,35.362-12.347,52.979c-4.007-17.594-8.524-35.07-11.801-53.087
		c-0.47,0.804-0.306,1.375-0.297,1.916c0.248,15.772,0.485,31.546,0.425,47.321c-0.005,1.407-0.365,1.745-1.725,1.696
		c-3.026-0.107-6.06-0.095-9.087-0.003c-1.195,0.036-1.459-0.32-1.454-1.477c0.046-10.865,0.027-21.73,0.027-32.596
		c0-17.29,0.017-34.58-0.032-51.871c-0.004-1.325,0.349-1.645,1.637-1.61c3.55,0.094,7.104,0.076,10.655,0.005
		c1.009-0.02,1.331,0.355,1.529,1.262c2.874,13.13,6.188,26.163,8.621,39.387C235.192,150.062,235.611,153.479,236.154,157.083z"/>
	<path fill-rule="evenodd" clip-rule="evenodd" fill="#FFFEFE" d="M419.057,149.822c0-14.051,0.018-28.102-0.03-42.152
		c-0.005-1.271,0.257-1.666,1.598-1.645c5.379,0.085,10.76,0.021,16.14,0.038c11.306,0.038,17.816,5.571,19.534,16.775
		c0.933,6.087,0.856,12.175-0.891,18.147c-1.058,3.617-2.822,6.847-5.642,9.404c-0.608,0.552-0.678,1.076-0.531,1.79
		c2.734,13.319,5.442,26.646,8.211,39.958c0.227,1.093,0.154,1.457-1.071,1.437c-3.917-0.067-7.836-0.061-11.752-0.002
		c-1.007,0.016-1.298-0.317-1.471-1.286c-2.137-12.006-4.371-23.995-6.47-36.007c-0.385-2.202-1.869-1.065-2.877-1.24
		c-1.269-0.221-0.874,0.881-0.875,1.503c-0.02,11.805-0.037,23.609,0.018,35.414c0.006,1.311-0.33,1.66-1.634,1.625
		c-3.549-0.095-7.104-0.094-10.653,0c-1.289,0.034-1.642-0.282-1.637-1.608C419.077,177.923,419.057,163.872,419.057,149.822z
		 M432.915,130.674c0,3.916-0.008,7.832,0.01,11.749c0.002,0.511-0.241,1.118,0.701,1.266c4.108,0.641,7.079-1.107,8.348-5.087
		c1.313-4.119,1.059-8.353,0.735-12.57c-0.132-1.713-0.489-3.403-1.288-4.963c-1.017-1.986-2.615-3.058-4.864-3.106
		c-0.782-0.018-1.573,0.05-2.348-0.036c-1.05-0.115-1.329,0.294-1.315,1.313C432.947,123.05,432.915,126.862,432.915,130.674z"/>
	<path fill-rule="evenodd" clip-rule="evenodd" fill="#FDFEFE" d="M161.782,193.546c1.06-6.739,2.084-13.327,3.132-19.91
		c1.729-10.862,3.48-21.722,5.206-32.584c1.799-11.326,3.586-22.653,5.352-33.984c0.124-0.79,0.446-1.026,1.219-1.021
		c4.387,0.029,8.775,0.049,13.162-0.013c0.97-0.013,1.117,0.485,1.226,1.197c0.964,6.34,1.923,12.681,2.898,19.018
		c1.729,11.232,3.469,22.463,5.202,33.695c1.676,10.871,3.342,21.744,5.038,32.612c0.117,0.749-0.003,1.016-0.815,1.009
		c-3.969-0.032-7.94-0.048-11.909,0.01c-0.957,0.015-1.133-0.448-1.214-1.194c-0.438-4.045-0.884-8.09-1.335-12.134
		c-0.185-1.659-0.436-3.312-0.568-4.975c-0.06-0.751-0.346-0.961-1.059-0.953c-2.82,0.029-5.641,0.03-8.461-0.001
		c-0.771-0.009-1.096,0.221-1.182,1.039c-0.598,5.653-1.245,11.303-1.883,16.952c-0.059,0.523,0.159,1.239-0.771,1.238
		C170.64,193.544,166.262,193.546,161.782,193.546z M182.776,128.282c-0.396,0.328-0.273,0.722-0.283,1.051
		c-0.196,6.323-1.163,12.567-1.897,18.836c-0.473,4.041-0.861,8.093-1.348,12.133c-0.139,1.15,0.124,1.621,1.371,1.511
		c1.244-0.11,2.505-0.024,3.758-0.024c2.702,0,2.639,0.009,2.267-2.67c-0.946-6.817-1.855-13.64-2.727-20.468
		C183.48,135.222,183.157,131.777,182.776,128.282z"/>
	<path fill-rule="evenodd" clip-rule="evenodd" fill="#FDFEFE" d="M54.515,104.641c8.287-0.101,14.195,4.294,16.843,12.539
		c0.767,2.389,1.217,4.848,1.601,7.323c0.149,0.962-0.156,1.395-1.116,1.589c-3.472,0.706-6.946,1.415-10.388,2.254
		c-1.239,0.302-1.523-0.144-1.617-1.207c-0.211-2.396-0.607-4.759-1.589-6.979c-0.644-1.455-1.595-2.586-3.294-2.79
		c-2.358-0.282-4.019,0.867-4.493,3.348c-0.923,4.824-0.467,9.445,2.334,13.666c2.062,3.106,4.574,5.83,7.127,8.517
		c4.776,5.025,9.155,10.339,11.607,16.925c2.929,7.87,3.513,15.872,0.487,23.859c-2.951,7.789-10.367,12.038-18.634,11.262
		c-8.606-0.809-13.363-5.825-15.82-13.62c-0.927-2.942-1.451-5.972-1.744-9.043c-0.049-0.513-0.128-0.9,0.562-1.02
		c4.006-0.696,8.009-1.413,12.009-2.143c0.83-0.151,0.797,0.402,0.86,0.923c0.278,2.276,0.519,4.56,1.134,6.78
		c0.321,1.159,0.702,2.295,1.351,3.316c0.99,1.559,2.409,2.288,4.251,2.045c1.844-0.243,3.108-1.271,3.505-3.101
		c1.279-5.898,0.607-11.521-2.655-16.694c-2.802-4.445-6.559-8.109-9.984-12.045c-4.758-5.468-8.533-11.468-9.789-18.76
		c-0.91-5.288-0.637-10.519,1.175-15.593C40.852,108.679,46.567,104.737,54.515,104.641z"/>
	<path fill-rule="evenodd" clip-rule="evenodd" fill="#FDFEFE" d="M138.871,104.641c8.302-0.07,14.183,4.324,16.817,12.574
		c0.763,2.391,1.214,4.85,1.592,7.325c0.129,0.849-0.037,1.331-0.997,1.523c-3.575,0.717-7.15,1.447-10.692,2.307
		c-1.182,0.287-1.344-0.228-1.413-1.109c-0.142-1.825-0.455-3.622-0.99-5.372c-0.228-0.743-0.495-1.487-0.854-2.174
		c-0.982-1.88-2.334-2.58-4.349-2.343c-1.623,0.192-2.845,1.37-3.216,3.376c-0.891,4.828-0.451,9.46,2.298,13.688
		c1.998,3.074,4.277,5.931,6.85,8.536c4.948,5.01,9.477,10.338,11.974,17.029c2.917,7.816,3.445,15.771,0.442,23.705
		c-2.91,7.691-10.388,12.007-18.499,11.262c-8.661-0.796-13.491-5.783-15.959-13.66c-0.923-2.946-1.397-5.979-1.764-9.039
		c-0.1-0.841,0.252-0.941,0.907-1.055c3.852-0.665,7.7-1.35,11.542-2.073c0.848-0.159,0.936,0.244,1.014,0.904
		c0.267,2.277,0.514,4.56,1.128,6.781c0.32,1.162,0.707,2.294,1.354,3.314c0.987,1.557,2.408,2.287,4.25,2.044
		c1.845-0.244,3.108-1.275,3.503-3.104c1.247-5.779,0.638-11.311-2.499-16.424c-2.806-4.573-6.655-8.295-10.144-12.312
		c-4.714-5.429-8.479-11.371-9.75-18.605c-0.948-5.392-0.693-10.726,1.115-15.908C125.078,108.545,130.752,104.71,138.871,104.641z"
		/>
	<path fill-rule="evenodd" clip-rule="evenodd" fill="#FDFEFE" d="M372.065,172.596c0.06,4.771-0.69,9.1-2.818,13.114
		c-3.453,6.52-10.25,9.926-17.597,9.25c-7.961-0.731-12.87-5.026-15.481-12.342c-1.182-3.311-1.854-6.723-2.163-10.217
		c-0.059-0.662-0.025-1.044,0.783-1.18c3.905-0.659,7.802-1.37,11.695-2.096c0.938-0.175,0.893,0.471,0.948,1.013
		c0.227,2.232,0.483,4.462,1.102,6.625c0.271,0.947,0.586,1.898,1.023,2.777c1.03,2.07,2.674,2.954,4.677,2.638
		c1.979-0.313,3.258-1.529,3.619-3.78c0.932-5.804,0.248-11.333-3.074-16.354c-2.81-4.246-6.403-7.835-9.729-11.649
		c-4.799-5.501-8.612-11.536-9.84-18.894c-0.965-5.779-0.606-11.456,1.753-16.881c2.93-6.736,9.219-10.47,16.562-9.951
		c9.068,0.642,14.364,5.304,16.601,14.682c0.411,1.721,0.629,3.485,0.975,5.223c0.178,0.896-0.115,1.312-1.03,1.498
		c-3.522,0.716-7.044,1.447-10.541,2.277c-1.129,0.268-1.434-0.092-1.525-1.12c-0.22-2.446-0.612-4.863-1.631-7.129
		c-0.655-1.458-1.623-2.56-3.328-2.736c-2.354-0.243-3.978,0.919-4.451,3.409c-0.908,4.771-0.443,9.358,2.236,13.549
		c2.032,3.177,4.4,6.095,7.042,8.78c4.825,4.904,9.169,10.136,11.753,16.625C371.306,163.95,372.109,168.326,372.065,172.596z"/>
	<path fill-rule="evenodd" clip-rule="evenodd" fill="#FFFEFE" d="M81.389,149.816c0-14.054,0.02-28.107-0.032-42.161
		c-0.004-1.306,0.321-1.632,1.625-1.624c9.978,0.059,19.957,0.054,29.936,0.005c1.163-0.006,1.5,0.269,1.47,1.456
		c-0.087,3.394-0.09,6.792,0.001,10.186c0.033,1.223-0.367,1.467-1.501,1.455c-5.276-0.058-10.553,0.002-15.83-0.048
		c-1.086-0.011-1.431,0.298-1.423,1.403c0.047,6.374,0.053,12.748-0.004,19.121c-0.011,1.188,0.461,1.347,1.469,1.335
		c3.866-0.047,7.732,0.014,11.598-0.041c1.021-0.014,1.341,0.271,1.322,1.315c-0.064,3.499-0.061,7.001-0.002,10.5
		c0.017,1.016-0.259,1.335-1.301,1.318c-3.917-0.06-7.837,0.011-11.754-0.047c-1.026-0.016-1.331,0.271-1.326,1.306
		c0.039,8.045,0.042,16.091-0.002,24.137c-0.006,1.09,0.393,1.271,1.359,1.264c5.643-0.039,11.285,0.013,16.927-0.046
		c1.117-0.011,1.396,0.31,1.373,1.396c-0.071,3.395-0.077,6.793,0.002,10.187c0.027,1.15-0.377,1.354-1.423,1.35
		c-10.292-0.036-20.584-0.046-30.876,0.009c-1.288,0.008-1.645-0.292-1.64-1.614C81.409,177.924,81.389,163.87,81.389,149.816z"/>
	<path fill-rule="evenodd" clip-rule="evenodd" fill="#FDFEFE" d="M466.893,149.734c0-14.003,0.023-28.005-0.036-42.008
		c-0.006-1.412,0.385-1.704,1.732-1.695c9.927,0.06,19.854,0.052,29.781,0.006c1.184-0.005,1.613,0.233,1.576,1.52
		c-0.099,3.394-0.08,6.792-0.008,10.187c0.024,1.133-0.364,1.396-1.428,1.387c-5.276-0.047-10.554,0.021-15.83-0.052
		c-1.278-0.019-1.552,0.397-1.541,1.595c0.055,6.27,0.059,12.54-0.004,18.809c-0.012,1.192,0.324,1.493,1.488,1.471
		c3.813-0.074,7.629,0.012,11.441-0.053c1.111-0.019,1.55,0.188,1.517,1.432c-0.094,3.446-0.082,6.897-0.005,10.344
		c0.025,1.135-0.337,1.382-1.408,1.364c-3.865-0.063-7.732,0.009-11.598-0.047c-1.039-0.015-1.44,0.191-1.434,1.348
		c0.052,7.993,0.05,15.988,0.002,23.981c-0.007,1.11,0.309,1.391,1.396,1.381c5.59-0.054,11.182,0.006,16.771-0.051
		c1.129-0.012,1.542,0.214,1.509,1.443c-0.091,3.394-0.069,6.792-0.008,10.188c0.019,1.047-0.318,1.305-1.334,1.302
		c-10.396-0.036-20.795-0.047-31.191,0.01c-1.273,0.007-1.413-0.465-1.411-1.539C466.902,177.948,466.893,163.841,466.893,149.734z"
		/>
	<path fill-rule="evenodd" clip-rule="evenodd" fill="#FDFEFE" d="M272.125,149.767c0-14.001,0.02-28.002-0.032-42.003
		c-0.005-1.351,0.282-1.747,1.698-1.737c9.821,0.069,19.643,0.058,29.464,0.01c1.162-0.006,1.506,0.271,1.476,1.461
		c-0.085,3.394-0.089,6.792,0.001,10.186c0.033,1.238-0.405,1.461-1.523,1.449c-5.224-0.053-10.449,0.013-15.672-0.051
		c-1.174-0.015-1.491,0.305-1.48,1.479c0.058,6.32,0.065,12.643-0.005,18.963c-0.014,1.253,0.423,1.442,1.521,1.424
		c3.813-0.061,7.628,0.016,11.44-0.047c1.1-0.019,1.431,0.311,1.411,1.405c-0.062,3.499-0.051,7-0.004,10.5
		c0.013,0.961-0.288,1.243-1.251,1.23c-3.865-0.053-7.733,0.038-11.597-0.056c-1.292-0.031-1.52,0.407-1.513,1.582
		c0.049,7.889,0.05,15.777-0.002,23.666c-0.008,1.153,0.259,1.493,1.455,1.479c5.694-0.067,11.389,0.004,17.083-0.058
		c1.155-0.013,1.523,0.256,1.493,1.457c-0.086,3.342-0.087,6.688,0,10.029c0.032,1.215-0.365,1.457-1.505,1.452
		c-10.344-0.044-20.688-0.048-31.032,0.004c-1.222,0.006-1.452-0.38-1.449-1.509C272.138,177.978,272.125,163.872,272.125,149.767z"
		/>
	<path fill-rule="evenodd" clip-rule="evenodd" fill="#FFFEFE" d="M509.927,149.839c0-14.051,0.018-28.102-0.028-42.152
		c-0.004-1.257,0.234-1.667,1.593-1.658c9.976,0.065,19.953,0.063,29.93,0.002c1.295-0.008,1.528,0.412,1.503,1.578
		c-0.071,3.342-0.074,6.687,0.002,10.027c0.026,1.147-0.243,1.517-1.453,1.501c-5.379-0.068-10.76,0.003-16.14-0.054
		c-1.181-0.013-1.604,0.241-1.59,1.527c0.071,6.319,0.06,12.641,0.007,18.96c-0.01,1.113,0.317,1.397,1.399,1.379
		c3.864-0.063,7.731,0.009,11.596-0.046c1.043-0.015,1.466,0.199,1.44,1.357c-0.076,3.498-0.07,7-0.002,10.498
		c0.021,1.085-0.375,1.286-1.351,1.274c-3.917-0.048-7.835,0.011-11.752-0.041c-0.987-0.012-1.337,0.21-1.331,1.277
		c0.047,8.044,0.044,16.088,0.003,24.132c-0.006,1.03,0.283,1.308,1.305,1.299c5.797-0.047,11.596,0.007,17.394-0.049
		c1.103-0.011,1.406,0.288,1.383,1.389c-0.073,3.394-0.076,6.791,0.001,10.184c0.025,1.139-0.358,1.364-1.416,1.36
		c-10.342-0.038-20.685-0.051-31.026,0.012c-1.327,0.008-1.49-0.468-1.487-1.604C509.938,177.94,509.927,163.89,509.927,149.839z"/>
	<path fill-rule="evenodd" clip-rule="evenodd" fill="#FDFEFE" d="M400.318,156.546c0,11.802-0.021,23.604,0.031,35.404
		c0.005,1.285-0.289,1.682-1.618,1.646c-3.652-0.098-7.313-0.125-10.964,0.01c-1.553,0.057-1.731-0.533-1.729-1.853
		c0.036-19.635,0.024-39.27,0.024-58.903c0-4.073-0.053-8.147,0.031-12.219c0.026-1.283-0.406-1.578-1.602-1.548
		c-2.975,0.076-5.953-0.007-8.929,0.043c-1.006,0.018-1.35-0.271-1.329-1.326c0.067-3.497,0.071-6.998-0.002-10.495
		c-0.022-1.101,0.395-1.262,1.354-1.26c11.749,0.028,23.499,0.031,35.248-0.004c1.024-0.003,1.328,0.274,1.31,1.306
		c-0.062,3.445-0.082,6.894,0.008,10.338c0.033,1.248-0.432,1.47-1.534,1.445c-2.923-0.063-5.85,0.043-8.771-0.051
		c-1.27-0.041-1.559,0.385-1.555,1.593C400.335,132.63,400.318,144.588,400.318,156.546z"/>
	<path fill-rule="evenodd" clip-rule="evenodd" fill="#FDFEFE" d="M559.846,156.313c0-11.803-0.022-23.605,0.028-35.408
		c0.006-1.365-0.249-1.904-1.757-1.835c-2.866,0.132-5.743,0.008-8.615,0.055c-0.964,0.017-1.381-0.177-1.357-1.281
		c0.075-3.55,0.054-7.103,0.01-10.653c-0.011-0.88,0.246-1.146,1.137-1.145c11.698,0.026,23.396,0.025,35.095,0
		c0.863-0.002,1.169,0.201,1.156,1.118c-0.052,3.604-0.048,7.207-0.002,10.811c0.012,0.896-0.269,1.164-1.151,1.15
		c-2.976-0.045-5.957,0.067-8.929-0.053c-1.438-0.059-1.703,0.433-1.7,1.763c0.039,23.553,0.031,47.106,0.023,70.659
		c-0.001,2.42,0.276,2.048-2.082,2.063c-3.446,0.021-6.895-0.052-10.34,0.035c-1.244,0.032-1.549-0.332-1.545-1.558
		C559.864,180.127,559.846,168.221,559.846,156.313z"/>
	<path fill-rule="evenodd" clip-rule="evenodd" fill="#FDFEFE" d="M592.493,208.597c-3.98-0.003-6.976-3.119-6.972-7.253
		c0.003-4.146,2.98-7.226,6.983-7.226c4.239,0,7.368,3.075,7.364,7.238C599.864,205.514,596.721,208.6,592.493,208.597z
		 M592.564,195.393c-3.233-0.017-5.752,2.571-5.768,5.925c-0.015,3.332,2.522,6.003,5.707,6.009c3.438,0.006,6.1-2.638,6.062-6.023
		C598.528,197.95,595.949,195.41,592.564,195.393z"/>
	<path fill-rule="evenodd" clip-rule="evenodd" fill="#FDFEFE" d="M336.542,46.195c4.115,2.553,5.346,5.731,4.095,10.322
		c-1.026,3.768-4.288,6.133-8.523,6.347c-4.173,0.212-7.385-1.325-9.701-4.827c-0.51-0.772-0.419-1.159,0.338-1.557
		c0.367-0.192,0.695-0.46,1.042-0.692c0.822-0.552,1.591-1.419,2.481-1.57c0.98-0.165,1.134,1.251,1.858,1.812
		c1.545,1.194,3.612,1.536,5.281,0.657c1.521-0.803,2.056-2.133,1.936-3.786c-0.151-2.082-1.699-3.458-4.02-3.575
		c-2.886-0.146-2.886-0.146-2.886-2.982c0-0.156,0-0.313,0-0.47c0.001-2.156,0.001-2.156,2.231-2.199
		c2.323-0.044,3.638-0.976,3.771-2.679c0.102-1.29-0.249-2.41-1.414-3.087c-1.457-0.847-2.878-0.509-4.321,0.185
		c-0.769,0.369-1.071,1.68-2.06,1.303c-0.723-0.276-1.243-1.083-1.852-1.653c-2.373-2.224-2.398-2.26,0.285-4.137
		c3.258-2.28,6.778-2.452,10.415-1.051C340.598,34.519,342.286,43.09,336.542,46.195z"/>
	<path fill-rule="evenodd" clip-rule="evenodd" fill="#FDFEFE" d="M306.721,62.461c-2.507,0-5.015-0.029-7.522,0.016
		c-0.841,0.016-1.185-0.168-1.182-1.108c0.012-6.1,1.997-11.241,7.053-14.951c0.758-0.556,1.511-1.118,2.24-1.709
		c0.403-0.326,0.803-0.678,1.119-1.084c1.181-1.514,1.204-4.343,0.079-5.389c-1.17-1.088-3.643-0.906-5.218,0.383
		c-1.749,1.432-1.749,1.432-3.336-0.305c-0.035-0.039-0.07-0.078-0.105-0.116c-2.138-2.326-2.13-2.663,0.47-4.512
		c3.238-2.302,6.804-2.613,10.417-1.183c4.432,1.756,6.05,7.605,3.521,12.146c-1.015,1.822-2.529,3.164-4.181,4.384
		c-1.514,1.117-2.988,2.285-4.14,3.798c-0.315,0.414-0.629,0.838-0.878,1.293c-1.318,2.403-1.14,2.708,1.542,2.708
		c2.508,0,5.016,0.038,7.522-0.02c0.923-0.021,1.365,0.181,1.245,1.197c-0.168,1.434,0.61,3.258-0.33,4.212
		c-0.802,0.814-2.583,0.197-3.93,0.23C309.647,62.489,308.184,62.461,306.721,62.461z"/>
	<path fill-rule="evenodd" clip-rule="evenodd" fill="#FDFEFE" d="M288.018,47.334c0,4.589-0.036,9.179,0.026,13.767
		c0.015,1.099-0.284,1.499-1.388,1.373c-1.381-0.156-3.176,0.579-4.052-0.309c-0.802-0.813-0.223-2.58-0.228-3.925
		c-0.022-5.58-0.037-11.16,0.015-16.739c0.01-1.04-0.3-1.426-1.309-1.271c-0.204,0.031-0.417,0.005-0.625,0.005
		c-2.531-0.001-2.492-0.001-2.488-2.588c0.001-0.826,0.214-1.141,1.059-1.307c1.832-0.358,3.037-1.524,3.598-3.315
		c0.124-0.394,0.11-0.882,0.681-0.889c1.407-0.016,2.819-0.067,4.221,0.02c0.809,0.05,0.472,0.81,0.474,1.253
		C288.027,38.051,288.018,42.692,288.018,47.334z"/>
	<path fill-rule="evenodd" clip-rule="evenodd" fill="#04A770" d="M432.915,130.674c0-3.812,0.032-7.624-0.021-11.435
		c-0.014-1.02,0.266-1.429,1.315-1.313c0.774,0.086,1.565,0.019,2.348,0.036c2.249,0.049,3.848,1.12,4.864,3.106
		c0.799,1.56,1.156,3.25,1.288,4.963c0.323,4.218,0.577,8.451-0.735,12.57c-1.269,3.979-4.239,5.728-8.348,5.087
		c-0.942-0.147-0.699-0.755-0.701-1.266C432.907,138.506,432.915,134.59,432.915,130.674z"/>
	<path fill-rule="evenodd" clip-rule="evenodd" fill="#04A770" d="M182.776,128.282c0.381,3.495,0.704,6.939,1.142,10.368
		c0.872,6.828,1.781,13.65,2.727,20.468c0.372,2.679,0.435,2.67-2.267,2.67c-1.253,0-2.515-0.086-3.758,0.024
		c-1.247,0.11-1.51-0.36-1.371-1.511c0.487-4.04,0.875-8.092,1.348-12.133c0.734-6.269,1.701-12.513,1.897-18.836
		C182.503,129.004,182.38,128.61,182.776,128.282z"/>
	<path fill-rule="evenodd" clip-rule="evenodd" fill="#04A770" d="M592.564,195.393c3.385,0.018,5.964,2.558,6.001,5.91
		c0.038,3.386-2.623,6.029-6.062,6.023c-3.185-0.006-5.722-2.677-5.707-6.009C586.813,197.964,589.331,195.376,592.564,195.393z
		 M595.804,205.038c-0.09-0.264-0.152-0.457-0.222-0.648c-0.412-1.134-1.129-2.069,0.047-3.415c1.067-1.221,0.101-3.381-1.379-3.604
		c-1.223-0.185-2.488-0.078-3.735-0.099c-0.349-0.006-0.614,0.104-0.614,0.512c-0.002,2.288-0.002,4.575,0,6.863
		c0,0.398,0.239,0.506,0.601,0.523c0.46,0.022,0.676-0.155,0.663-0.623c-0.012-0.416-0.021-0.833,0.007-1.247
		c0.028-0.418-0.2-1.021,0.585-0.99c0.535,0.021,1.17-0.21,1.414,0.583c0.122,0.393,0.388,0.742,0.498,1.137
		C593.97,205.104,594.639,205.411,595.804,205.038z"/>
	<path fill-rule="evenodd" clip-rule="evenodd" fill="#FDFEFE" d="M595.804,205.038c-1.165,0.373-1.834,0.066-2.136-1.008
		c-0.11-0.395-0.376-0.744-0.498-1.137c-0.244-0.793-0.879-0.563-1.414-0.583c-0.785-0.031-0.557,0.572-0.585,0.99
		c-0.028,0.414-0.019,0.831-0.007,1.247c0.013,0.468-0.203,0.646-0.663,0.623c-0.361-0.018-0.601-0.125-0.601-0.523
		c-0.002-2.288-0.002-4.575,0-6.863c0-0.407,0.266-0.518,0.614-0.512c1.247,0.021,2.513-0.086,3.735,0.099
		c1.479,0.223,2.446,2.383,1.379,3.604c-1.176,1.346-0.459,2.281-0.047,3.415C595.651,204.581,595.714,204.774,595.804,205.038z
		 M592.482,198.789c-0.612,0.005-1.379-0.243-1.353,0.989c0.021,0.954,0.392,1.139,1.209,1.08c0.819-0.06,1.829,0.147,1.829-1.097
		C594.168,198.729,593.311,198.769,592.482,198.789z"/>
	<path fill-rule="evenodd" clip-rule="evenodd" fill="#04A770" d="M592.482,198.789c0.828-0.021,1.686-0.06,1.686,0.973
		c0,1.244-1.01,1.037-1.829,1.097c-0.817,0.059-1.188-0.126-1.209-1.08C591.104,198.546,591.87,198.794,592.482,198.789z"/>
</g>
</svg>
